<svg width="16" height="17" viewBox="0 0 16 17" fill="none" xmlns="http://www.w3.org/2000/svg">
    <path d="M15.6456 0.866559C15.5333 0.754055 15.4 0.664799 15.2532 0.603899C15.1064 0.542999 14.949 0.511652 14.79 0.511652C14.6311 0.511652 14.4737 0.542999 14.3269 0.603899C14.1801 0.664799 14.0467 0.754055 13.9344 0.866559L8 6.78887L2.06555 0.854423C1.9532 0.742067 1.81981 0.652941 1.67301 0.592134C1.52621 0.531327 1.36887 0.500031 1.20997 0.500031C1.05108 0.500031 0.893737 0.531327 0.746936 0.592134C0.600135 0.652941 0.466749 0.742067 0.354393 0.854423C0.242036 0.966779 0.15291 1.10017 0.0921034 1.24697C0.0312965 1.39377 -1.18387e-09 1.55111 0 1.71C1.18387e-09 1.8689 0.0312965 2.02624 0.0921034 2.17304C0.15291 2.31984 0.242036 2.45323 0.354393 2.56558L6.28884 8.50003L0.354393 14.4345C0.242036 14.5468 0.15291 14.6802 0.0921034 14.827C0.0312965 14.9738 0 15.1312 0 15.2901C0 15.449 0.0312965 15.6063 0.0921034 15.7531C0.15291 15.8999 0.242036 16.0333 0.354393 16.1456C0.466749 16.258 0.600135 16.3471 0.746936 16.4079C0.893737 16.4687 1.05108 16.5 1.20997 16.5C1.36887 16.5 1.52621 16.4687 1.67301 16.4079C1.81981 16.3471 1.9532 16.258 2.06555 16.1456L8 10.2112L13.9344 16.1456C14.0468 16.258 14.1802 16.3471 14.327 16.4079C14.4738 16.4687 14.6311 16.5 14.79 16.5C14.9489 16.5 15.1063 16.4687 15.2531 16.4079C15.3999 16.3471 15.5333 16.258 15.6456 16.1456C15.758 16.0333 15.8471 15.8999 15.9079 15.7531C15.9687 15.6063 16 15.449 16 15.2901C16 15.1312 15.9687 14.9738 15.9079 14.827C15.8471 14.6802 15.758 14.5468 15.6456 14.4345L9.71116 8.50003L15.6456 2.56558C16.1068 2.10442 16.1068 1.32772 15.6456 0.866559Z" fill="#414042"/>
    </svg>
    