<svg width="19" height="18" viewBox="0 0 19 18" fill="none" xmlns="http://www.w3.org/2000/svg">
    <path d="M13.5 1H5.5C3.29086 1 1.5 2.79086 1.5 5V13C1.5 15.2091 3.29086 17 5.5 17H13.5C15.7091 17 17.5 15.2091 17.5 13V5C17.5 2.79086 15.7091 1 13.5 1Z" stroke="#414042" stroke-width="2" stroke-linecap="round" stroke-linejoin="round"/>
    <path d="M9.5 12C11.1569 12 12.5 10.6569 12.5 9C12.5 7.34315 11.1569 6 9.5 6C7.84315 6 6.5 7.34315 6.5 9C6.5 10.6569 7.84315 12 9.5 12Z" stroke="#414042" stroke-width="2" stroke-linecap="round" stroke-linejoin="round"/>
    <path d="M14 4.5V4.501" stroke="#414042" stroke-width="2" stroke-linecap="round" stroke-linejoin="round"/>
    </svg>
    