<svg width="19" height="18" viewBox="0 0 19 18" fill="none" xmlns="http://www.w3.org/2000/svg">
    <path d="M15.5 1H3.5C2.39543 1 1.5 1.89543 1.5 3V15C1.5 16.1046 2.39543 17 3.5 17H15.5C16.6046 17 17.5 16.1046 17.5 15V3C17.5 1.89543 16.6046 1 15.5 1Z" stroke="#414042" stroke-width="2" stroke-linecap="round" stroke-linejoin="round"/>
    <path d="M5.5 8V13" stroke="#414042" stroke-width="2" stroke-linecap="round" stroke-linejoin="round"/>
    <path d="M5.5 5V5.01" stroke="#414042" stroke-width="2" stroke-linecap="round" stroke-linejoin="round"/>
    <path d="M9.5 13V8" stroke="#414042" stroke-width="2" stroke-linecap="round" stroke-linejoin="round"/>
    <path d="M13.5 13V10C13.5 9.46957 13.2893 8.96086 12.9142 8.58579C12.5391 8.21071 12.0304 8 11.5 8C10.9696 8 10.4609 8.21071 10.0858 8.58579C9.71071 8.96086 9.5 9.46957 9.5 10" stroke="#414042" stroke-width="2" stroke-linecap="round" stroke-linejoin="round"/>
    </svg>
