<svg width="23" height="19" viewBox="0 0 23 19" fill="none" xmlns="http://www.w3.org/2000/svg">
        <path d="M21.5 2.01001C20.5 2.50001 19.52 2.69901 18.5 3.00001C17.379 1.73501 15.717 1.66501 14.12 2.26301C12.523 2.86101 11.477 4.32301 11.5 6.00001V7.00001C8.255 7.08301 5.365 5.60501 3.5 3.00001C3.5 3.00001 -0.682 10.433 7.5 14C5.628 15.247 3.761 16.088 1.5 16C4.808 17.803 8.413 18.423 11.534 17.517C15.114 16.477 18.056 13.794 19.185 9.77501C19.5218 8.55268 19.689 7.28987 19.682 6.02201C19.68 5.77301 21.192 3.25001 21.5 2.00901V2.01001Z" stroke="#414042" stroke-width="2" stroke-linecap="round" stroke-linejoin="round"/>
        </svg>
        