<svg width="30" height="30" viewBox="0 0 30 30" fill="none" xmlns="http://www.w3.org/2000/svg">
<path d="M23.75 11.25H11.25C9.86929 11.25 8.75 12.3693 8.75 13.75V21.25C8.75 22.6307 9.86929 23.75 11.25 23.75H23.75C25.1307 23.75 26.25 22.6307 26.25 21.25V13.75C26.25 12.3693 25.1307 11.25 23.75 11.25Z" stroke="" stroke-width="2" stroke-linecap="round" stroke-linejoin="round"/>
<path d="M17.5 20C18.8807 20 20 18.8807 20 17.5C20 16.1193 18.8807 15 17.5 15C16.1193 15 15 16.1193 15 17.5C15 18.8807 16.1193 20 17.5 20Z" stroke="" stroke-width="2" stroke-linecap="round" stroke-linejoin="round"/>
<path d="M21.25 11.25V8.75C21.25 8.08696 20.9866 7.45107 20.5178 6.98223C20.0489 6.51339 19.413 6.25 18.75 6.25H6.25C5.58696 6.25 4.95107 6.51339 4.48223 6.98223C4.01339 7.45107 3.75 8.08696 3.75 8.75V16.25C3.75 16.913 4.01339 17.5489 4.48223 18.0178C4.95107 18.4866 5.58696 18.75 6.25 18.75H8.75" stroke="" stroke-width="2" stroke-linecap="round" stroke-linejoin="round"/>
</svg>
