<svg width="779" height="253" viewBox="0 0 779 253" fill="none" xmlns="http://www.w3.org/2000/svg">
<g clip-path="url(#clip0_1120_10289)">
<rect width="779" height="253" rx="8" fill="#FEFEFE"/>
<path d="M37.248 41L33.096 35.216C35.496 34.568 36.864 32.528 36.864 30.032C36.864 26.984 34.92 24.872 30.72 24.872H25.728V41H28.032V35.432H30.552L34.56 41H37.248ZM28.032 27.176H31.512C33.192 27.176 34.56 28.064 34.56 30.176C34.56 32.264 33.144 33.128 31.464 33.128H28.032V27.176ZM49.7657 35.288C49.7657 31.544 47.4137 29.288 44.3657 29.288C40.8377 29.288 38.6297 31.952 38.6297 35.24C38.6297 38.48 40.6457 41.192 44.6777 41.192C47.1737 41.192 48.6857 40.064 48.9977 39.8L48.2297 37.736C47.3177 38.384 46.0937 38.888 44.7257 38.888C42.9017 38.888 41.3417 38.096 40.9817 36.296H49.6937C49.7417 35.984 49.7657 35.528 49.7657 35.288ZM40.9817 34.184C41.0297 33.056 42.1577 31.592 44.2697 31.592C46.4537 31.592 47.3657 33.056 47.4137 34.184H40.9817ZM56.3494 41.384L61.9174 29.48H59.4214L56.3494 36.2L53.2774 29.48H50.7814L56.3494 41.384ZM74.0816 35.288C74.0816 31.544 71.7296 29.288 68.6816 29.288C65.1536 29.288 62.9456 31.952 62.9456 35.24C62.9456 38.48 64.9616 41.192 68.9936 41.192C71.4896 41.192 73.0016 40.064 73.3136 39.8L72.5456 37.736C71.6336 38.384 70.4096 38.888 69.0416 38.888C67.2176 38.888 65.6576 38.096 65.2976 36.296H74.0096C74.0576 35.984 74.0816 35.528 74.0816 35.288ZM65.2976 34.184C65.3456 33.056 66.4736 31.592 68.5856 31.592C70.7696 31.592 71.6816 33.056 71.7296 34.184H65.2976ZM82.5373 29.288C80.7373 29.288 79.6093 30.056 78.9373 30.824V29.48H76.6333V41H78.9373V34.664C78.9373 32.696 80.7133 31.592 82.1053 31.592C84.0733 31.592 84.6973 32.72 84.6973 34.568V41H87.0013V34.376C87.0013 30.968 85.2733 29.288 82.5373 29.288ZM94.1955 41.192C95.9955 41.192 97.1235 40.424 97.7955 39.656V41H100.099V29.48H97.7955V35.816C97.7955 37.784 96.0195 38.888 94.6275 38.888C92.6595 38.888 92.0355 37.76 92.0355 35.912V29.48H89.7315V36.104C89.7315 39.512 91.4595 41.192 94.1955 41.192ZM113.778 35.288C113.778 31.544 111.426 29.288 108.378 29.288C104.85 29.288 102.642 31.952 102.642 35.24C102.642 38.48 104.658 41.192 108.69 41.192C111.186 41.192 112.698 40.064 113.01 39.8L112.242 37.736C111.33 38.384 110.106 38.888 108.738 38.888C106.914 38.888 105.354 38.096 104.994 36.296H113.706C113.754 35.984 113.778 35.528 113.778 35.288ZM104.994 34.184C105.042 33.056 106.17 31.592 108.282 31.592C110.466 31.592 111.378 33.056 111.426 34.184H104.994Z" fill="#414042"/>
<path d="M80.5846 225.602V231.538C80.5846 233.218 80.0526 234.226 78.5686 234.226C77.9106 234.226 77.3646 233.918 77.1126 233.526L76.5526 234.254C76.8886 234.688 77.7566 235.122 78.5686 235.122C80.3886 235.122 81.4806 233.988 81.4806 231.426V225.602H80.5846ZM89.086 228.29V229.48C88.512 228.696 87.602 228.178 86.51 228.178C84.592 228.178 83.038 229.732 83.038 231.65C83.038 233.568 84.592 235.122 86.51 235.122C87.602 235.122 88.512 234.604 89.086 233.82V235.01H89.982V228.29H89.086ZM86.51 234.226C85.082 234.226 83.934 233.078 83.934 231.65C83.934 230.222 85.082 229.074 86.51 229.074C87.938 229.074 89.086 230.222 89.086 231.65C89.086 233.078 87.938 234.226 86.51 234.226ZM95.2122 228.178C94.2742 228.178 93.3502 228.766 93.0002 229.326V228.29H92.1042V235.01H93.0002V231.09C93.0002 229.83 94.2042 229.074 95.2402 229.074C96.6122 229.074 97.0322 229.956 97.0322 231.034V235.01H97.9282V231.258C97.9282 229.27 97.1442 228.178 95.2122 228.178Z" fill="#6F6C99"/>
<path d="M160.263 235.01H161.159V230.754H164.743V229.858H161.159V226.498H165.415V225.602H160.263V235.01ZM173.029 231.622C173.029 229.466 171.657 228.178 169.879 228.178C167.821 228.178 166.533 229.704 166.533 231.65C166.533 233.54 167.849 235.122 170.061 235.122C171.517 235.122 172.399 234.464 172.581 234.31L172.245 233.498C171.685 233.932 170.957 234.226 170.089 234.226C168.661 234.226 167.597 233.372 167.457 232.098H172.987C173.015 231.944 173.029 231.762 173.029 231.622ZM167.457 231.202C167.499 230.25 168.241 229.074 169.837 229.074C171.419 229.074 172.077 230.278 172.119 231.202H167.457ZM175.484 225.154H174.588V235.01H175.484V233.82C176.058 234.604 176.968 235.122 178.06 235.122C179.978 235.122 181.532 233.568 181.532 231.65C181.532 229.732 179.978 228.178 178.06 228.178C176.968 228.178 176.058 228.696 175.484 229.48V225.154ZM178.06 234.226C176.632 234.226 175.484 233.078 175.484 231.65C175.484 230.222 176.632 229.074 178.06 229.074C179.488 229.074 180.636 230.222 180.636 231.65C180.636 233.078 179.488 234.226 178.06 234.226Z" fill="#6F6C99"/>
<path d="M246.9 235.234L250.176 228.318L251.24 235.01H252.164L250.568 225.378L246.9 233.274L243.232 225.378L241.636 235.01H242.56L243.624 228.318L246.9 235.234ZM259.542 228.29V229.48C258.968 228.696 258.058 228.178 256.966 228.178C255.048 228.178 253.494 229.732 253.494 231.65C253.494 233.568 255.048 235.122 256.966 235.122C258.058 235.122 258.968 234.604 259.542 233.82V235.01H260.438V228.29H259.542ZM256.966 234.226C255.538 234.226 254.39 233.078 254.39 231.65C254.39 230.222 255.538 229.074 256.966 229.074C258.394 229.074 259.542 230.222 259.542 231.65C259.542 233.078 258.394 234.226 256.966 234.226ZM263.456 229.732V228.29H262.56V235.01H263.456V231.79C263.456 230.446 264.1 229.564 264.968 229.256C265.528 229.06 266.074 229.13 266.368 229.2V228.178C265.108 228.178 263.918 228.766 263.456 229.732Z" fill="#6F6C99"/>
<path d="M329.541 235.01H330.549L326.069 225.378L321.589 235.01H322.597L323.521 232.994H328.617L329.541 235.01ZM323.927 232.098L326.069 227.394L328.211 232.098H323.927ZM332.778 228.29H331.882V238.594H332.778V233.82C333.352 234.604 334.262 235.122 335.354 235.122C337.272 235.122 338.826 233.568 338.826 231.65C338.826 229.732 337.272 228.178 335.354 228.178C334.262 228.178 333.352 228.696 332.778 229.48V228.29ZM335.354 234.226C333.926 234.226 332.778 233.078 332.778 231.65C332.778 230.222 333.926 229.074 335.354 229.074C336.782 229.074 337.93 230.222 337.93 231.65C337.93 233.078 336.782 234.226 335.354 234.226ZM341.397 229.732V228.29H340.501V235.01H341.397V231.79C341.397 230.446 342.041 229.564 342.909 229.256C343.469 229.06 344.015 229.13 344.309 229.2V228.178C343.049 228.178 341.859 228.766 341.397 229.732Z" fill="#6F6C99"/>
<path d="M400.356 235.234L403.632 228.318L404.696 235.01H405.62L404.024 225.378L400.356 233.274L396.688 225.378L395.092 235.01H396.016L397.08 228.318L400.356 235.234ZM412.998 228.29V229.48C412.424 228.696 411.514 228.178 410.422 228.178C408.504 228.178 406.95 229.732 406.95 231.65C406.95 233.568 408.504 235.122 410.422 235.122C411.514 235.122 412.424 234.604 412.998 233.82V235.01H413.894V228.29H412.998ZM410.422 234.226C408.994 234.226 407.846 233.078 407.846 231.65C407.846 230.222 408.994 229.074 410.422 229.074C411.85 229.074 412.998 230.222 412.998 231.65C412.998 233.078 411.85 234.226 410.422 234.226ZM420.676 228.29L418.478 233.442L416.28 228.29H415.23L417.946 234.59L416.154 238.594H417.176L421.726 228.29H420.676Z" fill="#6F6C99"/>
<path d="M476.889 225.602V231.538C476.889 233.218 476.357 234.226 474.873 234.226C474.215 234.226 473.669 233.918 473.417 233.526L472.857 234.254C473.193 234.688 474.061 235.122 474.873 235.122C476.693 235.122 477.785 233.988 477.785 231.426V225.602H476.889ZM482.283 235.122C483.221 235.122 484.145 234.534 484.495 233.974V235.01H485.391V228.29H484.495V232.21C484.495 233.47 483.291 234.226 482.255 234.226C480.883 234.226 480.463 233.344 480.463 232.266V228.29H479.567V232.042C479.567 234.03 480.351 235.122 482.283 235.122ZM490.614 228.178C489.676 228.178 488.752 228.766 488.402 229.326V228.29H487.506V235.01H488.402V231.09C488.402 229.83 489.606 229.074 490.642 229.074C492.014 229.074 492.434 229.956 492.434 231.034V235.01H493.33V231.258C493.33 229.27 492.546 228.178 490.614 228.178Z" fill="#6F6C99"/>
<path d="M550.844 225.602V231.538C550.844 233.218 550.312 234.226 548.828 234.226C548.17 234.226 547.624 233.918 547.372 233.526L546.812 234.254C547.148 234.688 548.016 235.122 548.828 235.122C550.648 235.122 551.74 233.988 551.74 231.426V225.602H550.844ZM556.238 235.122C557.176 235.122 558.1 234.534 558.45 233.974V235.01H559.346V228.29H558.45V232.21C558.45 233.47 557.246 234.226 556.21 234.226C554.838 234.226 554.418 233.344 554.418 232.266V228.29H553.522V232.042C553.522 234.03 554.306 235.122 556.238 235.122ZM561.461 225.154V235.01H562.357V225.154H561.461ZM569.024 228.29L566.826 233.442L564.628 228.29H563.578L566.294 234.59L564.502 238.594H565.524L570.074 228.29H569.024Z" fill="#6F6C99"/>
<path d="M628.543 235.01H629.551L625.071 225.378L620.591 235.01H621.599L622.523 232.994H627.619L628.543 235.01ZM622.929 232.098L625.071 227.394L627.213 232.098H622.929ZM633.376 235.122C634.314 235.122 635.238 234.534 635.588 233.974V235.01H636.484V228.29H635.588V232.21C635.588 233.47 634.384 234.226 633.348 234.226C631.976 234.226 631.556 233.344 631.556 232.266V228.29H630.66V232.042C630.66 234.03 631.444 235.122 633.376 235.122ZM644.091 228.29V229.48C643.517 228.696 642.607 228.178 641.515 228.178C639.597 228.178 638.043 229.732 638.043 231.65C638.043 233.568 639.597 235.122 641.515 235.122C642.607 235.122 643.517 234.604 644.091 233.82V234.786C644.091 236.886 643.027 237.81 641.459 237.81C640.213 237.81 639.317 237.292 638.715 236.802L638.267 237.586C638.561 237.824 639.723 238.706 641.459 238.706C643.657 238.706 644.987 237.39 644.987 234.59V228.29H644.091ZM641.515 234.226C640.087 234.226 638.939 233.078 638.939 231.65C638.939 230.222 640.087 229.074 641.515 229.074C642.943 229.074 644.091 230.222 644.091 231.65C644.091 233.078 642.943 234.226 641.515 234.226Z" fill="#6F6C99"/>
<path d="M700.289 229.69C698.679 229.368 697.965 228.92 697.965 227.94C697.965 226.932 698.973 226.386 700.191 226.386C701.283 226.386 702.123 226.876 702.585 227.38L703.005 226.61C701.941 225.532 700.583 225.49 700.205 225.49C698.287 225.49 697.069 226.61 697.069 227.996C697.069 229.256 697.657 230.124 700.191 230.586C702.011 230.922 702.557 231.552 702.557 232.42C702.557 233.428 701.465 234.226 700.149 234.226C698.763 234.226 697.755 233.554 697.181 232.798L696.733 233.596C696.901 233.834 697.993 235.122 700.121 235.122C702.067 235.122 703.453 233.89 703.453 232.476C703.453 230.894 702.599 230.152 700.289 229.69ZM711.273 231.622C711.273 229.466 709.901 228.178 708.123 228.178C706.065 228.178 704.777 229.704 704.777 231.65C704.777 233.54 706.093 235.122 708.305 235.122C709.761 235.122 710.643 234.464 710.825 234.31L710.489 233.498C709.929 233.932 709.201 234.226 708.333 234.226C706.905 234.226 705.841 233.372 705.701 232.098H711.231C711.259 231.944 711.273 231.762 711.273 231.622ZM705.701 231.202C705.743 230.25 706.485 229.074 708.081 229.074C709.663 229.074 710.321 230.278 710.363 231.202H705.701ZM713.727 228.29H712.831V238.594H713.727V233.82C714.301 234.604 715.211 235.122 716.303 235.122C718.221 235.122 719.775 233.568 719.775 231.65C719.775 229.732 718.221 228.178 716.303 228.178C715.211 228.178 714.301 228.696 713.727 229.48V228.29ZM716.303 234.226C714.875 234.226 713.727 233.078 713.727 231.65C713.727 230.222 714.875 229.074 716.303 229.074C717.731 229.074 718.879 230.222 718.879 231.65C718.879 233.078 717.731 234.226 716.303 234.226Z" fill="#6F6C99"/>
<path d="M22.8321 76.312V69.368L16.7841 77.208H21.9361V79H22.8321V77.208H23.9521V76.312H22.8321ZM21.9361 76.312H18.5201L21.9361 71.832V76.312ZM29.2553 72.728C28.0093 72.728 27.2533 73.344 26.9593 73.736L27.4353 70.488H31.3273V69.592H26.7493L25.9373 75.192H26.8613C27.3513 74.31 28.0233 73.624 29.1853 73.624C30.4873 73.624 31.3273 74.59 31.3273 75.864C31.3273 77.278 30.3473 78.216 28.9753 78.216C27.5753 78.216 26.7353 77.292 26.6373 76.2L25.7273 76.312C25.8393 77.908 27.1693 79.112 28.9753 79.112C30.7113 79.112 32.2233 77.768 32.2233 75.822C32.2233 73.82 30.7953 72.728 29.2553 72.728ZM37.3637 69.48C35.3617 69.48 34.0037 71.496 34.0037 74.296C34.0037 77.096 35.3477 79.112 37.3637 79.112C39.3517 79.112 40.7237 77.096 40.7237 74.296C40.7237 71.496 39.3517 69.48 37.3637 69.48ZM37.3637 78.216C36.0057 78.216 34.8997 76.606 34.8997 74.296C34.8997 71.986 36.0057 70.376 37.3637 70.376C38.7217 70.376 39.8277 71.986 39.8277 74.296C39.8277 76.606 38.7217 78.216 37.3637 78.216ZM45.8588 69.48C43.8568 69.48 42.4988 71.496 42.4988 74.296C42.4988 77.096 43.8428 79.112 45.8588 79.112C47.8468 79.112 49.2188 77.096 49.2188 74.296C49.2188 71.496 47.8468 69.48 45.8588 69.48ZM45.8588 78.216C44.5008 78.216 43.3948 76.606 43.3948 74.296C43.3948 71.986 44.5008 70.376 45.8588 70.376C47.2168 70.376 48.3228 71.986 48.3228 74.296C48.3228 76.606 47.2168 78.216 45.8588 78.216Z" fill="#6F6C99"/>
<path d="M22.1549 117.512C23.2749 117.134 23.7229 116.224 23.7229 115.412C23.7229 114.362 22.8129 112.948 20.6989 112.948C18.7949 112.948 17.7869 114.18 17.6609 115.748L18.5009 115.916C18.5989 115.02 18.9349 113.844 20.7829 113.844C21.9169 113.844 22.8269 114.46 22.8269 115.524C22.8269 116.756 21.1749 117.134 20.1389 117.148V118.044C21.7769 118.044 23.0509 118.52 23.0509 119.78C23.0509 120.634 22.3089 121.684 20.7829 121.684C18.9489 121.684 18.4309 120.424 18.3049 119.5L17.4509 119.668C17.5769 121.348 18.7389 122.58 20.6989 122.58C22.8409 122.58 23.9469 121.096 23.9469 119.696C23.9469 118.618 23.1909 117.708 22.1549 117.512ZM29.2553 116.196C28.0093 116.196 27.2533 116.812 26.9593 117.204L27.4353 113.956H31.3273V113.06H26.7493L25.9373 118.66H26.8613C27.3513 117.778 28.0233 117.092 29.1853 117.092C30.4873 117.092 31.3273 118.058 31.3273 119.332C31.3273 120.746 30.3473 121.684 28.9753 121.684C27.5753 121.684 26.7353 120.76 26.6373 119.668L25.7273 119.78C25.8393 121.376 27.1693 122.58 28.9753 122.58C30.7113 122.58 32.2233 121.236 32.2233 119.29C32.2233 117.288 30.7953 116.196 29.2553 116.196ZM37.3637 112.948C35.3617 112.948 34.0037 114.964 34.0037 117.764C34.0037 120.564 35.3477 122.58 37.3637 122.58C39.3517 122.58 40.7237 120.564 40.7237 117.764C40.7237 114.964 39.3517 112.948 37.3637 112.948ZM37.3637 121.684C36.0057 121.684 34.8997 120.074 34.8997 117.764C34.8997 115.454 36.0057 113.844 37.3637 113.844C38.7217 113.844 39.8277 115.454 39.8277 117.764C39.8277 120.074 38.7217 121.684 37.3637 121.684ZM45.8588 112.948C43.8568 112.948 42.4988 114.964 42.4988 117.764C42.4988 120.564 43.8428 122.58 45.8588 122.58C47.8468 122.58 49.2188 120.564 49.2188 117.764C49.2188 114.964 47.8468 112.948 45.8588 112.948ZM45.8588 121.684C44.5008 121.684 43.3948 120.074 43.3948 117.764C43.3948 115.454 44.5008 113.844 45.8588 113.844C47.2168 113.844 48.3228 115.454 48.3228 117.764C48.3228 120.074 47.2168 121.684 45.8588 121.684Z" fill="#6F6C99"/>
<path d="M17.4561 159.328L18.3521 159.496C18.4501 158.278 19.1361 157.312 20.4801 157.312C21.7401 157.312 22.6081 158.124 22.6081 159.412C22.6081 160.406 21.9361 161.302 21.0121 162.212L17.2321 165.936H23.9521V165.04H19.3321L21.4881 162.968C22.8181 161.68 23.5041 160.812 23.5041 159.328C23.5041 157.55 22.2161 156.416 20.4801 156.416C18.6321 156.416 17.5541 157.83 17.4561 159.328ZM29.2553 159.664C28.0093 159.664 27.2533 160.28 26.9593 160.672L27.4353 157.424H31.3273V156.528H26.7493L25.9373 162.128H26.8613C27.3513 161.246 28.0233 160.56 29.1853 160.56C30.4873 160.56 31.3273 161.526 31.3273 162.8C31.3273 164.214 30.3473 165.152 28.9753 165.152C27.5753 165.152 26.7353 164.228 26.6373 163.136L25.7273 163.248C25.8393 164.844 27.1693 166.048 28.9753 166.048C30.7113 166.048 32.2233 164.704 32.2233 162.758C32.2233 160.756 30.7953 159.664 29.2553 159.664ZM37.3637 156.416C35.3617 156.416 34.0037 158.432 34.0037 161.232C34.0037 164.032 35.3477 166.048 37.3637 166.048C39.3517 166.048 40.7237 164.032 40.7237 161.232C40.7237 158.432 39.3517 156.416 37.3637 156.416ZM37.3637 165.152C36.0057 165.152 34.8997 163.542 34.8997 161.232C34.8997 158.922 36.0057 157.312 37.3637 157.312C38.7217 157.312 39.8277 158.922 39.8277 161.232C39.8277 163.542 38.7217 165.152 37.3637 165.152ZM45.8588 156.416C43.8568 156.416 42.4988 158.432 42.4988 161.232C42.4988 164.032 43.8428 166.048 45.8588 166.048C47.8468 166.048 49.2188 164.032 49.2188 161.232C49.2188 158.432 47.8468 156.416 45.8588 156.416ZM45.8588 165.152C44.5008 165.152 43.3948 163.542 43.3948 161.232C43.3948 158.922 44.5008 157.312 45.8588 157.312C47.2168 157.312 48.3228 158.922 48.3228 161.232C48.3228 163.542 47.2168 165.152 45.8588 165.152Z" fill="#6F6C99"/>
<path d="M17.2374 202.796L18.1334 202.964C18.2314 201.746 18.9174 200.78 20.2614 200.78C21.5214 200.78 22.3894 201.592 22.3894 202.88C22.3894 203.874 21.7174 204.77 20.7934 205.68L17.0134 209.404H23.7334V208.508H19.1134L21.2694 206.436C22.5994 205.148 23.2854 204.28 23.2854 202.796C23.2854 201.018 21.9974 199.884 20.2614 199.884C18.4134 199.884 17.3354 201.298 17.2374 202.796ZM28.8685 199.884C26.8665 199.884 25.5085 201.9 25.5085 204.7C25.5085 207.5 26.8525 209.516 28.8685 209.516C30.8565 209.516 32.2285 207.5 32.2285 204.7C32.2285 201.9 30.8565 199.884 28.8685 199.884ZM28.8685 208.62C27.5105 208.62 26.4045 207.01 26.4045 204.7C26.4045 202.39 27.5105 200.78 28.8685 200.78C30.2265 200.78 31.3325 202.39 31.3325 204.7C31.3325 207.01 30.2265 208.62 28.8685 208.62ZM37.3637 199.884C35.3617 199.884 34.0037 201.9 34.0037 204.7C34.0037 207.5 35.3477 209.516 37.3637 209.516C39.3517 209.516 40.7237 207.5 40.7237 204.7C40.7237 201.9 39.3517 199.884 37.3637 199.884ZM37.3637 208.62C36.0057 208.62 34.8997 207.01 34.8997 204.7C34.8997 202.39 36.0057 200.78 37.3637 200.78C38.7217 200.78 39.8277 202.39 39.8277 204.7C39.8277 207.01 38.7217 208.62 37.3637 208.62ZM45.8588 199.884C43.8568 199.884 42.4988 201.9 42.4988 204.7C42.4988 207.5 43.8428 209.516 45.8588 209.516C47.8468 209.516 49.2188 207.5 49.2188 204.7C49.2188 201.9 47.8468 199.884 45.8588 199.884ZM45.8588 208.62C44.5008 208.62 43.3948 207.01 43.3948 204.7C43.3948 202.39 44.5008 200.78 45.8588 200.78C47.2168 200.78 48.3228 202.39 48.3228 204.7C48.3228 207.01 47.2168 208.62 45.8588 208.62Z" fill="#6F6C99"/>
<g opacity="0.453348" filter="url(#filter0_f_1120_10289)">
<path d="M360.348 131.233C360.348 131.233 384.349 124.837 386.478 119.837C401.592 84.3343 396.566 89.9805 400.73 84.4693C404.253 79.8065 409.566 113.674 422.9 124.159C436.537 134.882 464.679 79.502 481.493 84.4693C496.062 88.7732 498.45 124.326 509.997 124.159C524.808 123.945 529.204 90.3638 534.543 90.3638C537.497 90.3638 543.142 114.026 552.754 119.837C553.744 120.435 562.146 113.596 563.047 113.942C565.992 115.072 594.863 116.809 597.886 116.3C613.854 113.614 604.076 90.3638 609.763 90.3638C612.678 90.3638 609.225 107.854 627.183 111.584C644.779 115.239 684.089 105.018 658.854 116.3C649.22 120.607 509.997 138.699 509.997 138.699C509.997 138.699 504.441 166.3 496.537 165.814C474.018 164.43 460.293 140.062 452.988 141.45C435.593 144.756 445.046 161.65 427.651 159.527C423.77 159.053 422.022 141.943 418.149 141.45C389.886 137.855 331.844 145.773 331.844 145.773L360.348 131.233Z" fill="url(#paint0_linear_1120_10289)"/>
</g>
<path d="M46.0059 188.741L71.8619 185.316C73.0963 185.152 74.3102 184.859 75.4835 184.442L105.666 173.718C107.58 173.038 109.595 172.691 111.626 172.691H131.624C134.164 172.691 136.675 172.147 138.988 171.096L164.113 159.679C168.108 157.864 172.632 157.588 176.818 158.905L229.229 175.39C233.361 176.69 237.825 176.438 241.785 174.683L261.756 165.829C264.618 164.56 267.763 164.069 270.875 164.404L294.781 166.976C297.29 167.246 299.828 166.98 302.227 166.194L332.327 156.334C336.117 155.093 340.215 155.16 343.962 156.526L362.707 163.356C367.035 164.933 371.806 164.771 376.017 162.903L385.121 158.866C388.08 157.554 391.342 157.073 394.554 157.476L415.898 160.156C418.931 160.536 422.011 160.13 424.841 158.975L447.597 149.689C449.591 148.875 451.716 148.43 453.868 148.375L480.621 147.693C481.727 147.665 482.834 147.74 483.926 147.917L506.834 151.634C510.925 152.298 515.12 151.513 518.695 149.415L537.48 138.389C542.131 135.659 547.768 135.185 552.81 137.099L581.037 147.817C586.176 149.768 591.892 149.518 596.841 147.126L631.679 130.286C635.846 128.271 640.635 127.959 645.028 129.416L661.838 134.99C664.46 135.859 667.249 136.106 669.983 135.712L725.772 127.657C728.116 127.319 730.369 126.516 732.399 125.296L757.828 110.012" stroke="url(#paint1_linear_1120_10289)" stroke-width="2.37343" stroke-linecap="round" stroke-linejoin="round"/>
<g filter="url(#filter1_f_1120_10289)">
<path d="M46.0059 185.07L73.7186 178.854L106.081 175.137C107.724 174.948 109.385 174.989 111.017 175.259L123.184 177.272C140.151 180.079 157.526 179.165 174.105 174.592L199.848 167.492C203.306 166.538 206.972 166.651 210.364 167.817L226.151 173.24C241.507 178.516 258.385 176.988 272.543 169.039L278.068 165.938C291.249 158.538 306.756 156.448 321.426 160.093L339.625 164.616C343.314 165.533 347.199 165.245 350.712 163.794L388.5 148.19C392.311 146.616 396.551 146.414 400.495 147.619L432.401 157.365L463.281 138.878L487.956 144.671C490.927 145.368 494.052 144.919 496.705 143.412V143.412C507.323 137.387 519.752 135.379 531.727 137.755L555.493 142.471C576.279 146.596 597.853 142.287 615.459 130.493V130.493C619.039 128.096 623.63 127.805 627.482 129.733L634.05 133.02C639.405 135.699 645.748 135.507 650.931 132.509L668.58 122.297C671.29 120.729 674.365 119.904 677.495 119.904H726.323C728.309 119.904 730.282 119.571 732.159 118.92L757.828 110.012" stroke="url(#paint2_linear_1120_10289)" stroke-width="2.37343" stroke-linecap="round" stroke-linejoin="round"/>
</g>
<g filter="url(#filter2_f_1120_10289)">
<path d="M47.5895 179.176C42.4785 177.94 47.7774 176.403 52.8883 177.638L74.5583 182.876C74.9998 182.983 104.652 175.984 104.652 175.984C107.716 175.229 111.09 174.836 114.511 174.836H140.229C140.609 174.836 162.821 163.871 162.821 163.871C168.357 161.505 175.887 160.644 182.951 161.57L199.764 163.774C200.178 163.828 222.232 157.809 222.232 157.809C228.596 155.909 236.453 155.716 243.162 157.296L262.148 157.508C262.805 157.662 263.59 157.575 264.051 157.296L254.464 149.935C259.108 147.124 266.25 145.633 273.547 145.951L298.331 146.388C328.854 147.718 426.71 118.216 442.178 107.339C442.178 107.339 470.896 121.818 479.392 125.169C479.392 125.169 509.48 111.013 515.814 111.013C525.895 111.013 556.196 120.837 556.196 120.837C556.353 120.878 607.211 100.919 613.74 101.188C622.749 101.56 631.359 105.174 636.959 107.339C637.766 107.652 692.901 98.2236 692.901 98.2236C699.604 94.8868 701.299 98.0567 709.822 100.132L727.13 104.346C727.678 104.479 762.579 92.3291 762.579 92.3291C767.036 90.578 734.802 109.916 727.13 108.048L699.236 102.153C698.627 102.005 646.111 116.374 639.894 116.121C634.747 115.912 613.74 107.339 613.74 107.339C612.887 107 572.824 129.212 572.824 129.212C567.631 129.809 542.686 130.447 537.973 129.212L522.547 125.169C506.496 120.962 475.801 149.064 470.342 152.5L457.126 140.332C457.126 140.332 430.759 158.494 413.673 160.26C396.588 162.027 372.054 154.067 372.054 154.067L338.276 151.786C337.172 152.051 336.024 152.27 334.847 152.44L304.682 156.811C302.039 157.194 299.274 157.329 296.531 157.209L271.746 156.129C271.225 156.107 270.715 156.213 270.383 156.414L253.325 166.739C262.525 168.905 246.868 170.647 253.325 166.739L235.004 161.57C234.525 161.457 211.597 169.004 211.597 169.004C206.464 170.537 200.299 170.973 194.507 170.214L177.693 166.739C177.189 166.673 145.772 177.638 145.772 177.638C143.791 178.485 136.535 176.471 112.517 178.258C104.013 178.891 84.012 184.284 84.012 184.284C77.8541 185.802 73.5653 186.957 67.3843 185.463L47.5895 179.176Z" fill="url(#paint3_linear_1120_10289)"/>
</g>
<path d="M48.3813 180.355L76.0883 174.611C78.4431 174.122 80.8725 174.116 83.2297 174.593L107.561 179.513C110.298 180.066 113.128 179.968 115.82 179.226L136.676 173.475C139.02 172.829 141.472 172.67 143.88 173.007L166.518 176.183C170.027 176.675 173.603 176.109 176.788 174.557L195.547 165.417C199.681 163.403 204.433 163.067 208.809 164.478L226.578 170.211C231.11 171.672 236.039 171.258 240.262 169.059L260.153 158.706C264.001 156.703 268.448 156.174 272.659 157.219L288.555 161.164C291.5 161.895 294.583 161.86 297.511 161.065L319.738 155.023C323.964 153.875 328.466 154.325 332.381 156.286L358.046 169.147C363.86 172.06 370.799 171.571 376.147 167.872L414.897 141.068C416.783 139.764 418.904 138.836 421.142 138.336L505.153 119.564C507.819 118.968 510.586 118.994 513.24 119.639L569.988 133.434C580.929 136.093 592.423 135.305 602.898 131.177L626.041 122.056C634.968 118.538 644.666 117.435 654.155 118.859L692.109 124.553" stroke="url(#paint4_linear_1120_10289)" stroke-width="2.37343" stroke-linecap="round" stroke-linejoin="round"/>
<path d="M46.0059 180.747L72.1904 183.908C74.2491 184.157 76.3354 184.044 78.3552 183.574L109.736 176.277C111.057 175.97 112.41 175.815 113.767 175.815H138.96C141.365 175.815 143.745 175.328 145.956 174.382L169.797 164.192C172.729 162.939 175.945 162.496 179.107 162.911L198.223 165.417C200.706 165.742 203.229 165.54 205.629 164.824L229.111 157.813C232.092 156.923 235.255 156.83 238.283 157.543L259.048 162.431C263.584 163.499 268.358 162.746 272.344 160.333L287.026 151.447C290.893 149.106 295.507 148.324 299.93 149.26L343.042 158.387C347.278 159.283 351.695 158.605 355.467 156.48L386.331 139.088C388.515 137.858 390.935 137.102 393.431 136.871L477.134 129.132C478.973 128.962 480.827 129.079 482.629 129.479L510.559 135.677C515.026 136.668 519.704 135.901 523.621 133.535L544.386 120.988C548.704 118.379 553.927 117.725 558.756 119.189L584.421 126.97C588.476 128.199 592.837 127.942 596.719 126.244L633.436 110.182C636.589 108.803 640.075 108.367 643.471 108.928L663.997 112.319C666.351 112.708 668.759 112.619 671.078 112.059L694.917 106.3C696.729 105.863 698.599 105.712 700.458 105.855L727.177 107.904C728.603 108.013 730.037 107.95 731.448 107.716L757.828 103.345" stroke="url(#paint5_linear_1120_10289)" stroke-width="4.74686" stroke-linecap="round" stroke-linejoin="round"/>
<g filter="url(#filter3_b_1120_10289)">
<g clip-path="url(#clip1_1120_10289)">
<path d="M420.861 100.8C420.861 85.1364 420.861 77.3045 425.727 72.4384C430.593 67.5723 438.425 67.5723 454.089 67.5723H637.519C653.183 67.5723 661.015 67.5723 665.881 72.4384C670.747 77.3045 670.747 85.1364 670.747 100.8V212.971H420.861V100.8Z" fill="url(#paint6_linear_1120_10289)"/>
<path d="M390.6 316.189C460.616 316.189 475.45 228.006 533.599 213.765C569.347 205.01 613.108 240.28 654.643 228.006" stroke="url(#paint7_linear_1120_10289)" stroke-width="2.37343" stroke-linecap="round" stroke-linejoin="round"/>
<path d="M394.753 276.434L462.818 237.644C487.723 223.451 519.317 229.721 546.827 237.775C561.897 242.187 580.152 243.286 600.054 235.578" stroke="url(#paint8_linear_1120_10289)" stroke-width="5.93357" stroke-linecap="round" stroke-linejoin="round"/>
<path d="M499.184 94.8667V511.719" stroke="url(#paint9_linear_1120_10289)" stroke-width="1.18671" stroke-linecap="round" stroke-linejoin="round"/>
<path d="M538.345 142.335V261.07" stroke="url(#paint10_linear_1120_10289)" stroke-width="1.18671" stroke-linecap="round" stroke-linejoin="round"/>
<path d="M458.836 142.335V257.227" stroke="url(#paint11_linear_1120_10289)" stroke-width="1.18671" stroke-linecap="round" stroke-linejoin="round"/>
<circle opacity="0.2" cx="500.371" cy="225.405" r="66.456" fill="url(#paint12_radial_1120_10289)"/>
<g opacity="0.2" filter="url(#filter5_d_1120_10289)">
<circle cx="499.184" cy="224.218" r="28.0674" fill="url(#paint13_linear_1120_10289)"/>
</g>
<g filter="url(#filter6_d_1120_10289)">
<circle cx="499.184" cy="224.218" r="9.49371" fill="url(#paint14_linear_1120_10289)"/>
</g>
</g>
</g>
<g filter="url(#filter7_bd_1120_10289)">
<rect x="518.56" y="74.9602" width="154.065" height="11.5992" rx="5.79959" fill="url(#paint15_linear_1120_10289)"/>
</g>
<path d="M570.545 90.9871C570.815 91.0574 571.077 91.1304 571.332 91.2061C571.564 91.2818 571.775 91.3981 571.964 91.5549C572.159 91.6901 572.319 91.8605 572.443 92.066C572.54 92.2986 572.589 92.5717 572.589 92.8854C572.589 93.5397 572.402 94.0211 572.029 94.3293C571.651 94.6376 571.156 94.8161 570.545 94.8648V90.9871ZM565.815 92.4716C565.826 93.7101 566.196 94.6565 566.927 95.3109C567.646 95.9761 568.614 96.325 569.831 96.3574V97.6554H570.545V96.3574C571.686 96.3142 572.624 95.987 573.36 95.3758C574.101 94.7647 574.476 93.8453 574.487 92.6176C574.487 92.0065 574.382 91.4927 574.171 91.0763C573.949 90.6653 573.649 90.3273 573.27 90.0623C572.508 89.5377 571.599 89.1591 570.545 88.9265V85.422C571.697 85.4329 572.278 86.0142 572.289 87.1662H574.187C574.176 86.0737 573.822 85.2544 573.124 84.7082C572.438 84.189 571.578 83.9294 570.545 83.9294V82.6314H569.831V83.9294C568.814 83.9294 567.941 84.2052 567.21 84.7568C566.459 85.3139 566.077 86.1224 566.067 87.1824C566.067 87.7827 566.183 88.2884 566.415 88.6994C566.632 89.1104 566.918 89.4538 567.275 89.7297C567.643 89.9947 568.054 90.211 568.508 90.3787C568.936 90.5517 569.376 90.7058 569.831 90.8411V94.8648C568.36 94.7728 567.651 93.9751 567.705 92.4716H565.815ZM569.831 88.7481C569.344 88.6345 568.919 88.4506 568.557 88.1964C568.168 87.9531 567.968 87.5718 567.957 87.0526C567.968 85.9439 568.592 85.4004 569.831 85.422V88.7481ZM575.363 86.1359H581.391C578.822 88.9644 577.327 92.2769 576.905 96.0735H578.981C579.371 91.9849 580.818 88.6345 583.322 86.0223V84.4486H575.363V86.1359ZM585.171 96.0735H587.483V93.8345H585.171V96.0735ZM592.44 90.6707C592.829 90.6491 593.205 90.6545 593.567 90.6869C593.924 90.7248 594.246 90.8086 594.533 90.9384C594.819 91.0736 595.052 91.2737 595.23 91.5387C595.398 91.8145 595.482 92.185 595.482 92.6501C595.471 93.3153 595.26 93.8264 594.849 94.1833C594.438 94.5457 593.905 94.7268 593.251 94.7268C592.521 94.7268 591.967 94.4889 591.588 94.013C591.226 93.5479 591.05 92.9611 591.061 92.2526H589.162C589.2 93.4803 589.557 94.4537 590.233 95.173C590.904 95.9194 591.91 96.2979 593.251 96.3087C594.392 96.2979 595.363 95.9761 596.163 95.3434C596.947 94.7214 597.35 93.8561 597.372 92.7474C597.361 91.9849 597.18 91.344 596.829 90.8248C596.461 90.3165 595.939 89.9893 595.263 89.8432V89.8108C596.361 89.3565 596.91 88.5263 596.91 87.3203C596.888 86.2873 596.504 85.5059 595.758 84.9759C595.028 84.4675 594.187 84.2133 593.235 84.2133C592.072 84.2241 591.153 84.5946 590.477 85.3247C589.801 86.0656 589.435 87.012 589.381 88.164H591.28C591.269 87.5475 591.428 86.9985 591.758 86.5172C592.077 86.0413 592.559 85.7979 593.202 85.7871C593.743 85.7979 594.181 85.9493 594.517 86.2414C594.836 86.528 595.001 86.9255 595.011 87.4339C595.001 88.1315 594.736 88.6183 594.216 88.8941C593.697 89.1591 593.105 89.2808 592.44 89.2592V90.6707ZM598.694 90.8086H600.593C600.755 90.3976 601.009 90.1136 601.355 89.9568C601.696 89.8162 602.066 89.7459 602.467 89.7459C603.229 89.7567 603.794 89.9947 604.162 90.4598C604.508 90.9249 604.681 91.4954 604.681 92.1715C604.681 92.8799 604.524 93.4775 604.211 93.9643C603.892 94.4618 603.326 94.716 602.515 94.7268C601.244 94.716 600.53 94.0616 600.374 92.7637H598.483C598.559 93.9318 598.973 94.808 599.725 95.3921C600.466 95.9924 601.407 96.2979 602.548 96.3087C603.97 96.2763 605 95.8112 605.638 94.9134C606.26 94.0481 606.571 93.1233 606.571 92.139C606.561 90.9979 606.244 90.0677 605.622 89.3484C605.006 88.6291 604.108 88.2613 602.929 88.2451C602.545 88.2451 602.164 88.3181 601.785 88.4641C601.401 88.621 601.069 88.8427 600.787 89.1294L600.755 89.0969L601.355 86.1359H605.955V84.4486H599.944L598.694 90.8086ZM607.731 86.1359H613.759C611.19 88.9644 609.695 92.2769 609.273 96.0735H611.35C611.739 91.9849 613.186 88.6345 615.69 86.0223V84.4486H607.731V86.1359Z" fill="#6F6C99"/>
<ellipse cx="544.864" cy="80.7598" rx="7.51536" ry="1.65702" fill="#FB49C0"/>
<g filter="url(#filter8_bd_1120_10289)">
<rect x="353.222" y="89.459" width="154.065" height="11.5992" rx="5.79959" fill="url(#paint16_linear_1120_10289)"/>
</g>
<path d="M416.345 104.741C416.615 104.811 416.877 104.884 417.132 104.96C417.364 105.035 417.575 105.152 417.764 105.309C417.959 105.444 418.119 105.614 418.243 105.82C418.34 106.052 418.389 106.325 418.389 106.639C418.389 107.293 418.202 107.775 417.829 108.083C417.451 108.391 416.956 108.57 416.345 108.618V104.741ZM411.615 106.225C411.626 107.464 411.997 108.41 412.727 109.065C413.446 109.73 414.414 110.079 415.631 110.111V111.409H416.345V110.111C417.486 110.068 418.424 109.741 419.16 109.129C419.901 108.518 420.277 107.599 420.287 106.371C420.287 105.76 420.182 105.246 419.971 104.83C419.749 104.419 419.449 104.081 419.07 103.816C418.308 103.291 417.399 102.913 416.345 102.68V99.1757C417.497 99.1865 418.078 99.7679 418.089 100.92H419.987C419.976 99.8274 419.622 99.008 418.924 98.4618C418.238 97.9426 417.378 97.683 416.345 97.683V96.3851H415.631V97.683C414.614 97.683 413.741 97.9589 413.011 98.5105C412.259 99.0675 411.878 99.8761 411.867 100.936C411.867 101.536 411.983 102.042 412.216 102.453C412.432 102.864 412.719 103.208 413.075 103.483C413.443 103.748 413.854 103.965 414.309 104.132C414.736 104.305 415.177 104.46 415.631 104.595V108.618C414.16 108.526 413.451 107.729 413.505 106.225H411.615ZM415.631 102.502C415.144 102.388 414.72 102.204 414.357 101.95C413.968 101.707 413.768 101.325 413.757 100.806C413.768 99.6976 414.392 99.1541 415.631 99.1757V102.502ZM425.317 108.481C424.641 108.47 424.124 108.221 423.768 107.734C423.405 107.269 423.224 106.709 423.224 106.055C423.224 105.39 423.405 104.83 423.768 104.376C424.124 103.921 424.641 103.689 425.317 103.678C426.004 103.689 426.518 103.927 426.858 104.392C427.194 104.846 427.361 105.401 427.361 106.055C427.361 106.688 427.194 107.242 426.858 107.718C426.518 108.216 426.004 108.47 425.317 108.481ZM429.032 101.139C428.957 100.176 428.592 99.4055 427.937 98.8269C427.283 98.2644 426.48 97.9778 425.528 97.967C423.911 98.0102 422.77 98.6565 422.104 99.9058C421.455 101.15 421.136 102.507 421.147 103.978C421.126 105.709 421.407 107.145 421.991 108.286C422.58 109.449 423.711 110.041 425.382 110.062C426.566 110.052 427.507 109.668 428.205 108.91C428.892 108.18 429.241 107.239 429.251 106.087C429.251 104.946 428.93 104.016 428.286 103.297C427.653 102.567 426.75 102.196 425.577 102.185C424.484 102.185 423.649 102.645 423.07 103.564L423.037 103.532C423.07 103.132 423.121 102.705 423.192 102.25C423.256 101.796 423.365 101.363 423.516 100.952C423.684 100.547 423.924 100.211 424.238 99.9464C424.535 99.6868 424.938 99.5516 425.447 99.5408C425.944 99.5408 426.342 99.6868 426.639 99.9788C426.931 100.265 427.099 100.652 427.142 101.139H429.032ZM430.971 109.827H433.283V107.588H430.971V109.827ZM438.938 99.5408C439.657 99.5516 440.19 99.7895 440.536 100.255C440.876 100.709 441.047 101.263 441.047 101.918C441.047 102.572 440.876 103.137 440.536 103.613C440.19 104.1 439.657 104.349 438.938 104.359C438.261 104.349 437.759 104.094 437.429 103.597C437.082 103.132 436.909 102.572 436.909 101.918C436.909 101.263 437.082 100.704 437.429 100.238C437.759 99.7841 438.261 99.5516 438.938 99.5408ZM435.23 106.89C435.311 107.842 435.682 108.599 436.342 109.162C436.996 109.751 437.794 110.052 438.735 110.062C440.352 110.014 441.498 109.354 442.174 108.083C442.818 106.845 443.134 105.498 443.123 104.043C443.134 102.307 442.864 100.868 442.312 99.7273C441.734 98.5754 440.636 97.9886 439.019 97.967C437.748 97.9778 436.769 98.3537 436.082 99.0946C435.373 99.8355 435.019 100.782 435.019 101.934C435.03 103.129 435.373 104.076 436.05 104.773C436.699 105.487 437.577 105.849 438.686 105.86C439.806 105.849 440.641 105.384 441.193 104.465L441.233 104.497C441.217 104.881 441.176 105.3 441.112 105.755C441.047 106.209 440.93 106.642 440.763 107.053C440.611 107.464 440.379 107.796 440.065 108.051C439.757 108.337 439.343 108.481 438.824 108.481C438.332 108.481 437.942 108.332 437.656 108.034C437.358 107.748 437.183 107.366 437.128 106.89H435.23ZM448.315 108.562C447.677 108.562 447.158 108.37 446.758 107.986C446.336 107.618 446.12 107.091 446.109 106.404C446.12 105.749 446.336 105.246 446.758 104.895C447.158 104.538 447.677 104.359 448.315 104.359C448.97 104.359 449.502 104.538 449.913 104.895C450.314 105.246 450.519 105.749 450.53 106.404C450.519 107.091 450.314 107.618 449.913 107.986C449.502 108.37 448.97 108.562 448.315 108.562ZM448.315 110.062C449.527 110.052 450.508 109.724 451.26 109.081C452.023 108.437 452.409 107.545 452.42 106.404C452.388 104.889 451.679 103.943 450.295 103.564V103.532C451.382 103.099 451.931 102.302 451.942 101.139C451.909 99.0567 450.7 97.9994 448.315 97.967C445.925 97.9994 444.719 99.0567 444.697 101.139C444.708 102.302 445.257 103.099 446.344 103.532V103.564C444.96 103.943 444.248 104.889 444.21 106.404C444.227 107.545 444.622 108.437 445.395 109.081C446.147 109.724 447.12 110.052 448.315 110.062ZM448.315 99.4596C448.851 99.4596 449.289 99.6084 449.63 99.9058C449.965 100.209 450.138 100.652 450.149 101.236C450.138 101.782 449.97 102.199 449.646 102.486C449.305 102.794 448.862 102.948 448.315 102.948C447.796 102.948 447.366 102.794 447.025 102.486C446.669 102.199 446.49 101.782 446.49 101.236C446.501 100.652 446.685 100.209 447.042 99.9058C447.382 99.6084 447.807 99.4596 448.315 99.4596ZM453.532 99.8896H459.559C456.99 102.718 455.495 106.031 455.073 109.827H457.15C457.539 105.739 458.986 102.388 461.49 99.776V98.2022H453.532V99.8896Z" fill="#6F6C99"/>
<ellipse cx="480.983" cy="95.2586" rx="7.51536" ry="1.65703" fill="#F5A623"/>
<g filter="url(#filter9_bd_1120_10289)">
<rect x="580.562" y="91.5308" width="133.398" height="11.5992" rx="5.79959" fill="url(#paint17_linear_1120_10289)"/>
</g>
<path d="M632.547 106.706C632.818 106.776 633.08 106.849 633.334 106.925C633.567 107.001 633.777 107.117 633.967 107.274C634.161 107.409 634.321 107.579 634.445 107.785C634.543 108.018 634.591 108.291 634.591 108.604C634.591 109.259 634.405 109.74 634.032 110.048C633.653 110.357 633.158 110.535 632.547 110.584V106.706ZM627.818 108.191C627.828 109.429 628.199 110.376 628.929 111.03C629.648 111.695 630.616 112.044 631.833 112.076V113.374H632.547V112.076C633.688 112.033 634.627 111.706 635.362 111.095C636.103 110.484 636.479 109.564 636.49 108.337C636.49 107.726 636.384 107.212 636.173 106.795C635.952 106.384 635.651 106.046 635.273 105.781C634.51 105.257 633.602 104.878 632.547 104.646V101.141C633.699 101.152 634.28 101.733 634.291 102.885H636.19C636.179 101.793 635.824 100.973 635.127 100.427C634.44 99.908 633.58 99.6484 632.547 99.6484V98.3504H631.833V99.6484C630.816 99.6484 629.943 99.9242 629.213 100.476C628.461 101.033 628.08 101.841 628.069 102.901C628.069 103.502 628.185 104.007 628.418 104.418C628.634 104.829 628.921 105.173 629.278 105.449C629.646 105.714 630.057 105.93 630.511 106.098C630.938 106.271 631.379 106.425 631.833 106.56V110.584C630.362 110.492 629.654 109.694 629.708 108.191H627.818ZM631.833 104.467C631.346 104.354 630.922 104.17 630.56 103.915C630.17 103.672 629.97 103.291 629.959 102.772C629.97 101.663 630.595 101.119 631.833 101.141V104.467ZM640.57 106.39C640.96 106.368 641.335 106.373 641.698 106.406C642.055 106.444 642.376 106.528 642.663 106.657C642.95 106.793 643.182 106.993 643.361 107.258C643.528 107.534 643.612 107.904 643.612 108.369C643.601 109.034 643.391 109.545 642.98 109.902C642.568 110.265 642.036 110.446 641.381 110.446C640.651 110.446 640.097 110.208 639.718 109.732C639.356 109.267 639.18 108.68 639.191 107.972H637.293C637.331 109.199 637.688 110.173 638.364 110.892C639.034 111.638 640.04 112.017 641.381 112.028C642.523 112.017 643.493 111.695 644.294 111.062C645.078 110.44 645.481 109.575 645.502 108.466C645.492 107.704 645.31 107.063 644.959 106.544C644.591 106.035 644.069 105.708 643.393 105.562V105.53C644.491 105.075 645.04 104.245 645.04 103.039C645.018 102.006 644.634 101.225 643.888 100.695C643.158 100.186 642.317 99.9323 641.365 99.9323C640.202 99.9431 639.283 100.314 638.607 101.044C637.931 101.785 637.566 102.731 637.512 103.883H639.41C639.399 103.266 639.559 102.718 639.889 102.236C640.208 101.76 640.689 101.517 641.333 101.506C641.874 101.517 642.312 101.668 642.647 101.96C642.966 102.247 643.131 102.645 643.142 103.153C643.131 103.851 642.866 104.337 642.347 104.613C641.828 104.878 641.235 105 640.57 104.978V106.39ZM647.174 111.792H649.486V109.553H647.174V111.792ZM659.326 107.542H657.833V100.168H656.04L651.051 107.16V109.034H656.04V111.792H657.833V109.034H659.326V107.542ZM656 102.423H656.04V107.542H652.511L656 102.423ZM663.69 106.39C664.08 106.368 664.455 106.373 664.818 106.406C665.175 106.444 665.497 106.528 665.783 106.657C666.07 106.793 666.302 106.993 666.481 107.258C666.649 107.534 666.732 107.904 666.732 108.369C666.722 109.034 666.511 109.545 666.1 109.902C665.689 110.265 665.156 110.446 664.501 110.446C663.771 110.446 663.217 110.208 662.838 109.732C662.476 109.267 662.3 108.68 662.311 107.972H660.413C660.451 109.199 660.808 110.173 661.484 110.892C662.154 111.638 663.16 112.017 664.501 112.028C665.643 112.017 666.613 111.695 667.414 111.062C668.198 110.44 668.601 109.575 668.622 108.466C668.612 107.704 668.431 107.063 668.079 106.544C667.711 106.035 667.189 105.708 666.513 105.562V105.53C667.611 105.075 668.16 104.245 668.16 103.039C668.138 102.006 667.754 101.225 667.008 100.695C666.278 100.186 665.437 99.9323 664.485 99.9323C663.322 99.9431 662.403 100.314 661.727 101.044C661.051 101.785 660.686 102.731 660.632 103.883H662.53C662.519 103.266 662.679 102.718 663.009 102.236C663.328 101.76 663.809 101.517 664.453 101.506C664.994 101.517 665.432 101.668 665.767 101.96C666.086 102.247 666.251 102.645 666.262 103.153C666.251 103.851 665.986 104.337 665.467 104.613C664.948 104.878 664.355 105 663.69 104.978V106.39Z" fill="#6F6C99"/>
<ellipse cx="606.866" cy="97.3304" rx="7.51536" ry="1.65702" fill="#53B9EA"/>
</g>
<defs>
<filter id="filter0_f_1120_10289" x="189.438" y="-58.3744" width="620.04" height="366.6" filterUnits="userSpaceOnUse" color-interpolation-filters="sRGB">
<feFlood flood-opacity="0" result="BackgroundImageFix"/>
<feBlend mode="normal" in="SourceGraphic" in2="BackgroundImageFix" result="shape"/>
<feGaussianBlur stdDeviation="71.2028" result="effect1_foregroundBlur_1120_10289"/>
</filter>
<filter id="filter1_f_1120_10289" x="27.0181" y="91.0245" width="749.798" height="113.033" filterUnits="userSpaceOnUse" color-interpolation-filters="sRGB">
<feFlood flood-opacity="0" result="BackgroundImageFix"/>
<feBlend mode="normal" in="SourceGraphic" in2="BackgroundImageFix" result="shape"/>
<feGaussianBlur stdDeviation="8.90035" result="effect1_foregroundBlur_1120_10289"/>
</filter>
<filter id="filter2_f_1120_10289" x="-73.1606" y="-26.4546" width="954.832" height="331.285" filterUnits="userSpaceOnUse" color-interpolation-filters="sRGB">
<feFlood flood-opacity="0" result="BackgroundImageFix"/>
<feBlend mode="normal" in="SourceGraphic" in2="BackgroundImageFix" result="shape"/>
<feGaussianBlur stdDeviation="59.3357" result="effect1_foregroundBlur_1120_10289"/>
</filter>
<filter id="filter3_b_1120_10289" x="404.247" y="50.9583" width="283.114" height="178.627" filterUnits="userSpaceOnUse" color-interpolation-filters="sRGB">
<feFlood flood-opacity="0" result="BackgroundImageFix"/>
<feGaussianBlur in="BackgroundImage" stdDeviation="8.307"/>
<feComposite in2="SourceAlpha" operator="in" result="effect1_backgroundBlur_1120_10289"/>
<feBlend mode="normal" in="SourceGraphic" in2="effect1_backgroundBlur_1120_10289" result="shape"/>
</filter>
<filter id="filter5_d_1120_10289" x="463.996" y="196.151" width="70.3753" height="73.9355" filterUnits="userSpaceOnUse" color-interpolation-filters="sRGB">
<feFlood flood-opacity="0" result="BackgroundImageFix"/>
<feColorMatrix in="SourceAlpha" type="matrix" values="0 0 0 0 0 0 0 0 0 0 0 0 0 0 0 0 0 0 127 0" result="hardAlpha"/>
<feOffset dy="10.6804"/>
<feGaussianBlur stdDeviation="3.56014"/>
<feColorMatrix type="matrix" values="0 0 0 0 0.2125 0 0 0 0 0.0717188 0 0 0 0 0.173081 0 0 0 0.25 0"/>
<feBlend mode="normal" in2="BackgroundImageFix" result="effect1_dropShadow_1120_10289"/>
<feBlend mode="normal" in="SourceGraphic" in2="effect1_dropShadow_1120_10289" result="shape"/>
</filter>
<filter id="filter6_d_1120_10289" x="471.889" y="199.297" width="54.5887" height="54.5887" filterUnits="userSpaceOnUse" color-interpolation-filters="sRGB">
<feFlood flood-opacity="0" result="BackgroundImageFix"/>
<feColorMatrix in="SourceAlpha" type="matrix" values="0 0 0 0 0 0 0 0 0 0 0 0 0 0 0 0 0 0 127 0" result="hardAlpha"/>
<feOffset dy="2.37343"/>
<feGaussianBlur stdDeviation="8.90035"/>
<feColorMatrix type="matrix" values="0 0 0 0 1 0 0 0 0 0.191667 0 0 0 0 0.822166 0 0 0 0.4 0"/>
<feBlend mode="normal" in2="BackgroundImageFix" result="effect1_dropShadow_1120_10289"/>
<feBlend mode="normal" in="SourceGraphic" in2="effect1_dropShadow_1120_10289" result="shape"/>
</filter>
<filter id="filter7_bd_1120_10289" x="477.025" y="53.5994" width="237.135" height="94.6691" filterUnits="userSpaceOnUse" color-interpolation-filters="sRGB">
<feFlood flood-opacity="0" result="BackgroundImageFix"/>
<feGaussianBlur in="BackgroundImage" stdDeviation="8.90035"/>
<feComposite in2="SourceAlpha" operator="in" result="effect1_backgroundBlur_1120_10289"/>
<feColorMatrix in="SourceAlpha" type="matrix" values="0 0 0 0 0 0 0 0 0 0 0 0 0 0 0 0 0 0 127 0" result="hardAlpha"/>
<feOffset dy="20.1741"/>
<feGaussianBlur stdDeviation="20.7675"/>
<feColorMatrix type="matrix" values="0 0 0 0 1 0 0 0 0 0.225 0 0 0 0 0.876 0 0 0 0.15 0"/>
<feBlend mode="normal" in2="effect1_backgroundBlur_1120_10289" result="effect2_dropShadow_1120_10289"/>
<feBlend mode="normal" in="SourceGraphic" in2="effect2_dropShadow_1120_10289" result="shape"/>
</filter>
<filter id="filter8_bd_1120_10289" x="311.687" y="68.0981" width="237.135" height="94.6691" filterUnits="userSpaceOnUse" color-interpolation-filters="sRGB">
<feFlood flood-opacity="0" result="BackgroundImageFix"/>
<feGaussianBlur in="BackgroundImage" stdDeviation="8.90035"/>
<feComposite in2="SourceAlpha" operator="in" result="effect1_backgroundBlur_1120_10289"/>
<feColorMatrix in="SourceAlpha" type="matrix" values="0 0 0 0 0 0 0 0 0 0 0 0 0 0 0 0 0 0 127 0" result="hardAlpha"/>
<feOffset dy="20.1741"/>
<feGaussianBlur stdDeviation="20.7675"/>
<feColorMatrix type="matrix" values="0 0 0 0 0.983333 0 0 0 0 0.453399 0 0 0 0 0.0696528 0 0 0 0.15 0"/>
<feBlend mode="normal" in2="effect1_backgroundBlur_1120_10289" result="effect2_dropShadow_1120_10289"/>
<feBlend mode="normal" in="SourceGraphic" in2="effect2_dropShadow_1120_10289" result="shape"/>
</filter>
<filter id="filter9_bd_1120_10289" x="539.027" y="70.1699" width="216.468" height="94.6691" filterUnits="userSpaceOnUse" color-interpolation-filters="sRGB">
<feFlood flood-opacity="0" result="BackgroundImageFix"/>
<feGaussianBlur in="BackgroundImage" stdDeviation="8.90035"/>
<feComposite in2="SourceAlpha" operator="in" result="effect1_backgroundBlur_1120_10289"/>
<feColorMatrix in="SourceAlpha" type="matrix" values="0 0 0 0 0 0 0 0 0 0 0 0 0 0 0 0 0 0 127 0" result="hardAlpha"/>
<feOffset dy="20.1741"/>
<feGaussianBlur stdDeviation="20.7675"/>
<feColorMatrix type="matrix" values="0 0 0 0 0.0958334 0 0 0 0 1 0 0 0 0 1 0 0 0 0.15 0"/>
<feBlend mode="normal" in2="effect1_backgroundBlur_1120_10289" result="effect2_dropShadow_1120_10289"/>
<feBlend mode="normal" in="SourceGraphic" in2="effect2_dropShadow_1120_10289" result="shape"/>
</filter>
<linearGradient id="paint0_linear_1120_10289" x1="524.503" y1="97.885" x2="449.169" y2="256.579" gradientUnits="userSpaceOnUse">
<stop stop-color="#F4FF05" stop-opacity="0"/>
<stop offset="0.42484" stop-color="#FD63D2"/>
<stop offset="1" stop-color="#38FFE7" stop-opacity="0"/>
</linearGradient>
<linearGradient id="paint1_linear_1120_10289" x1="368.443" y1="228.106" x2="387.476" y2="72.2026" gradientUnits="userSpaceOnUse">
<stop stop-color="#45AFEE" stop-opacity="0.01"/>
<stop offset="0.0375866" stop-color="#43B1EC" stop-opacity="0.615533"/>
<stop offset="0.0805049" stop-color="#41B3E9" stop-opacity="0.767526"/>
<stop offset="0.146149" stop-color="#3EB7E5"/>
<stop offset="0.747659" stop-color="#23DBBD"/>
<stop offset="0.842081" stop-color="#1EE0B7" stop-opacity="0.852977"/>
<stop offset="0.896184" stop-color="#1CE4B3" stop-opacity="0.768733"/>
<stop offset="0.927591" stop-color="#1BE5B1" stop-opacity="0.144475"/>
<stop offset="1" stop-color="#17EAAC" stop-opacity="0.01"/>
</linearGradient>
<linearGradient id="paint2_linear_1120_10289" x1="637.617" y1="123.368" x2="101.067" y2="270.647" gradientUnits="userSpaceOnUse">
<stop stop-color="#FFB844" stop-opacity="0.01"/>
<stop offset="0.239409" stop-color="#A94DFF" stop-opacity="0.647334"/>
<stop offset="0.541479" stop-color="#B1FF72"/>
<stop offset="0.767902" stop-color="#50C2F1"/>
<stop offset="1" stop-color="#FF10D1" stop-opacity="0.01"/>
</linearGradient>
<linearGradient id="paint3_linear_1120_10289" x1="656.331" y1="66.7954" x2="52.1909" y2="382.469" gradientUnits="userSpaceOnUse">
<stop stop-color="#FF4105" stop-opacity="0.1"/>
<stop offset="0.396574" stop-color="#FFDA79" stop-opacity="0.29"/>
<stop offset="0.64229" stop-color="#3AF3FF" stop-opacity="0.6"/>
<stop offset="1" stop-color="#38CFFF" stop-opacity="0.489074"/>
</linearGradient>
<linearGradient id="paint4_linear_1120_10289" x1="180.148" y1="199.637" x2="185.754" y2="88.8094" gradientUnits="userSpaceOnUse">
<stop stop-color="#F18586" stop-opacity="0.01"/>
<stop offset="0.124227" stop-color="#F78D7D"/>
<stop offset="1" stop-color="#FF9F46" stop-opacity="0.01"/>
</linearGradient>
<linearGradient id="paint5_linear_1120_10289" x1="787.916" y1="109.619" x2="758.022" y2="315.786" gradientUnits="userSpaceOnUse">
<stop stop-color="#FF44D6" stop-opacity="0.01"/>
<stop offset="0.194726" stop-color="#FF7979"/>
<stop offset="0.391043" stop-color="#FF4DCA"/>
<stop offset="0.940665" stop-color="#FC6AA4"/>
<stop offset="1" stop-color="#E34E81" stop-opacity="0.594203"/>
</linearGradient>
<linearGradient id="paint6_linear_1120_10289" x1="505.923" y1="70.626" x2="505.923" y2="210.448" gradientUnits="userSpaceOnUse">
<stop stop-color="white" stop-opacity="0.32"/>
<stop offset="0.575619" stop-color="white" stop-opacity="0.32"/>
<stop offset="1" stop-color="white" stop-opacity="0.0586787"/>
</linearGradient>
<linearGradient id="paint7_linear_1120_10289" x1="444.648" y1="348.642" x2="481.857" y2="169.36" gradientUnits="userSpaceOnUse">
<stop stop-color="#F18586" stop-opacity="0.01"/>
<stop offset="0.124227" stop-color="#F78D7D"/>
<stop offset="1" stop-color="#FF9F46" stop-opacity="0.01"/>
</linearGradient>
<linearGradient id="paint8_linear_1120_10289" x1="519.29" y1="213.282" x2="488.963" y2="306.939" gradientUnits="userSpaceOnUse">
<stop stop-color="#FF60C3"/>
<stop offset="1" stop-color="#FF469F"/>
</linearGradient>
<linearGradient id="paint9_linear_1120_10289" x1="499.184" y1="511.719" x2="499.184" y2="94.8667" gradientUnits="userSpaceOnUse">
<stop stop-color="#F94CD5" stop-opacity="0.01"/>
<stop offset="0.457573" stop-color="#FD8AD8" stop-opacity="0.567414"/>
<stop offset="1" stop-color="#FA59FF"/>
</linearGradient>
<linearGradient id="paint10_linear_1120_10289" x1="538.345" y1="261.07" x2="538.345" y2="142.335" gradientUnits="userSpaceOnUse">
<stop stop-color="#31AFD6" stop-opacity="0.01"/>
<stop offset="1" stop-color="#53B9EA"/>
</linearGradient>
<linearGradient id="paint11_linear_1120_10289" x1="458.871" y1="257.227" x2="458.871" y2="138.89" gradientUnits="userSpaceOnUse">
<stop stop-color="#F5A623" stop-opacity="0.01"/>
<stop offset="1" stop-color="#F5A623"/>
</linearGradient>
<radialGradient id="paint12_radial_1120_10289" cx="0" cy="0" r="1" gradientUnits="userSpaceOnUse" gradientTransform="translate(500.371 225.405) rotate(28.5925) scale(92.6145)">
<stop stop-color="#FF731C"/>
<stop offset="1" stop-color="#FF49C8" stop-opacity="0.01"/>
</radialGradient>
<linearGradient id="paint13_linear_1120_10289" x1="443.049" y1="224.218" x2="499.184" y2="280.353" gradientUnits="userSpaceOnUse">
<stop stop-color="#FFF2FE"/>
<stop offset="1" stop-color="#FFBFF6"/>
</linearGradient>
<linearGradient id="paint14_linear_1120_10289" x1="480.196" y1="224.218" x2="499.184" y2="243.206" gradientUnits="userSpaceOnUse">
<stop stop-color="#FFF2FE"/>
<stop offset="1" stop-color="#FFBFF6"/>
</linearGradient>
<linearGradient id="paint15_linear_1120_10289" x1="532.981" y1="74.1166" x2="555.164" y2="125.197" gradientUnits="userSpaceOnUse">
<stop stop-color="#FBFBFF"/>
<stop offset="1" stop-color="white" stop-opacity="0.83"/>
</linearGradient>
<linearGradient id="paint16_linear_1120_10289" x1="367.643" y1="88.6153" x2="389.826" y2="139.696" gradientUnits="userSpaceOnUse">
<stop stop-color="#FBFBFF"/>
<stop offset="1" stop-color="white" stop-opacity="0.83"/>
</linearGradient>
<linearGradient id="paint17_linear_1120_10289" x1="593.048" y1="90.6871" x2="617.38" y2="139.198" gradientUnits="userSpaceOnUse">
<stop stop-color="#FBFBFF"/>
<stop offset="1" stop-color="white" stop-opacity="0.83"/>
</linearGradient>
<clipPath id="clip0_1120_10289">
<rect width="779" height="253" rx="8" fill="white"/>
</clipPath>
<clipPath id="clip1_1120_10289">
<path d="M420.861 100.8C420.861 85.1364 420.861 77.3045 425.727 72.4384C430.593 67.5723 438.425 67.5723 454.089 67.5723H637.519C653.183 67.5723 661.015 67.5723 665.881 72.4384C670.747 77.3045 670.747 85.1364 670.747 100.8V212.971H420.861V100.8Z" fill="white"/>
</clipPath>
</defs>
</svg>
