<svg width="32" height="32" viewBox="0 0 32 32" fill="none" xmlns="http://www.w3.org/2000/svg">
<path d="M11.9998 6.6665H9.33317C8.62593 6.6665 7.94765 6.94746 7.44755 7.44755C6.94746 7.94765 6.6665 8.62593 6.6665 9.33317V25.3332C6.6665 26.0404 6.94746 26.7187 7.44755 27.2188C7.94765 27.7189 8.62593 27.9998 9.33317 27.9998H22.6665C23.3737 27.9998 24.052 27.7189 24.5521 27.2188C25.0522 26.7187 25.3332 26.0404 25.3332 25.3332V9.33317C25.3332 8.62593 25.0522 7.94765 24.5521 7.44755C24.052 6.94746 23.3737 6.6665 22.6665 6.6665H19.9998" stroke="" stroke-width="2" stroke-linecap="round" stroke-linejoin="round"/>
<path d="M17.3333 4H14.6667C13.1939 4 12 5.19391 12 6.66667C12 8.13943 13.1939 9.33333 14.6667 9.33333H17.3333C18.8061 9.33333 20 8.13943 20 6.66667C20 5.19391 18.8061 4 17.3333 4Z" stroke="" stroke-width="2" stroke-linecap="round" stroke-linejoin="round"/>
<path d="M12 16H12.0133" stroke="" stroke-width="2" stroke-linecap="round" stroke-linejoin="round"/>
<path d="M17.333 16H19.9997" stroke="" stroke-width="2" stroke-linecap="round" stroke-linejoin="round"/>
<path d="M12 21.3335H12.0133" stroke="" stroke-width="2" stroke-linecap="round" stroke-linejoin="round"/>
<path d="M17.333 21.3335H19.9997" stroke="" stroke-width="2" stroke-linecap="round" stroke-linejoin="round"/>
</svg>
