<svg width="19" height="21" viewBox="0 0 19 21" fill="none" xmlns="http://www.w3.org/2000/svg">
<path d="M4 5C5.10457 5 6 4.10457 6 3C6 1.89543 5.10457 1 4 1C2.89543 1 2 1.89543 2 3C2 4.10457 2.89543 5 4 5Z" stroke="#828282" stroke-width="2" stroke-linecap="round" stroke-linejoin="round"/>
<path d="M2 20V15L1 14V10C1 9.73478 1.10536 9.48043 1.29289 9.29289C1.48043 9.10536 1.73478 9 2 9H6C6.26522 9 6.51957 9.10536 6.70711 9.29289C6.89464 9.48043 7 9.73478 7 10V14L6 15V20" stroke="#828282" stroke-width="2" stroke-linecap="round" stroke-linejoin="round"/>
<path d="M14 5C15.1046 5 16 4.10457 16 3C16 1.89543 15.1046 1 14 1C12.8954 1 12 1.89543 12 3C12 4.10457 12.8954 5 14 5Z" stroke="#828282" stroke-width="2" stroke-linecap="round" stroke-linejoin="round"/>
<path d="M12 20V16H10L12 10C12 9.73478 12.1054 9.48043 12.2929 9.29289C12.4804 9.10536 12.7348 9 13 9H15C15.2652 9 15.5196 9.10536 15.7071 9.29289C15.8946 9.48043 16 9.73478 16 10L18 16H16V20" stroke="#828282" stroke-width="2" stroke-linecap="round" stroke-linejoin="round"/>
</svg>
