<svg width="183" height="55" viewBox="0 0 183 55" fill="none" xmlns="http://www.w3.org/2000/svg">
<path d="M76.1155 25.4279C76.1155 28.4435 73.7138 30.6694 69.5706 30.6694C66.0278 30.6694 63.4155 29.1773 62.6641 28.5204L63.9246 24.9352C65.3991 26.2055 67.2607 26.9441 69.2089 27.0318C70.9645 27.0633 72.2707 26.6824 72.2707 25.7494C72.2707 25.089 71.6106 24.8514 69.6303 24.5229C64.0756 23.6284 63.1451 21.8638 63.1451 19.4422C63.1451 17.0207 65.7574 14.8997 69.6584 14.8997C71.6759 14.9252 73.6601 15.4156 75.4553 16.3323L74.3739 19.7986C73.6225 19.2605 71.6422 18.5721 69.6584 18.5442C68.0994 18.5127 66.9863 18.8133 66.9863 19.4387C66.9863 20.3368 68.5488 20.487 70.1464 20.7561C75.185 21.5737 76.1155 23.5445 76.1155 25.4279Z" fill="#231F20"/>
<path d="M78.0362 10.8324C78.0355 10.3119 78.1899 9.80284 78.48 9.36968C78.7701 8.93652 79.1828 8.59873 79.6659 8.39905C80.1489 8.19936 80.6806 8.14676 81.1937 8.24789C81.7068 8.34902 82.1783 8.59934 82.5484 8.96718C82.9185 9.33502 83.1707 9.80385 83.273 10.3143C83.3753 10.8248 83.3231 11.3541 83.1231 11.8351C82.9231 12.316 82.5842 12.7272 82.1493 13.0165C81.7145 13.3057 81.2032 13.4601 80.6801 13.4601C80.3327 13.462 79.9883 13.3953 79.6669 13.264C79.3455 13.1326 79.0535 12.9392 78.8076 12.6948C78.5618 12.4505 78.3671 12.1601 78.2346 11.8405C78.1022 11.5208 78.0348 11.1782 78.0362 10.8324ZM78.756 15.375H82.6007V30.2082H78.756V15.375Z" fill="#231F20"/>
<path d="M100.613 30.208H95.8099L92.6955 25.4278L89.574 30.208H84.7637L90.2868 22.3179L85.2412 15.3748H90.0445L92.6955 19.5679L95.3359 15.3748H100.139L95.0901 22.3179L100.613 30.208Z" fill="#231F20"/>
<path d="M116.136 23.9917H104.283C104.581 26.7102 106.863 28.5342 109.925 28.5342C111.598 28.5471 113.227 27.9994 114.549 26.9793L115.252 28.7264C114.862 29.0549 112.969 30.4735 109.848 30.4735C105.104 30.4735 102.281 27.0981 102.281 23.0657C102.281 18.911 105.045 15.6543 109.458 15.6543C113.271 15.6543 116.214 18.4043 116.214 22.9923C116.215 23.327 116.19 23.6612 116.136 23.9917ZM114.275 22.0803C114.184 20.1095 112.773 17.5377 109.381 17.5377C105.989 17.5377 104.367 20.0466 104.279 22.0803H114.275Z" fill="#231F20"/>
<path d="M121.031 9.17236V30.2079H119.11V9.17236H121.031Z" fill="#231F20"/>
<path d="M137.755 23.9917H125.894C126.196 26.7102 128.478 28.5342 131.54 28.5342C133.213 28.5471 134.842 27.9994 136.164 26.9793L136.884 28.7264C136.494 29.0549 134.602 30.4735 131.48 30.4735C126.737 30.4735 123.914 27.0981 123.914 23.0657C123.914 18.911 126.677 15.6543 131.09 15.6543C134.904 15.6543 137.846 18.4043 137.846 22.9923C137.843 23.3273 137.812 23.6616 137.755 23.9917ZM135.883 22.0803C135.792 20.1095 134.38 17.5377 130.989 17.5377C127.597 17.5377 125.975 20.0466 125.883 22.0803H135.883Z" fill="#231F20"/>
<path d="M138.805 15.864H140.968L145.771 26.3818L150.574 15.864H152.737L145.771 30.6833L138.805 15.864Z" fill="#231F20"/>
<path d="M167.537 23.9917H155.68C155.978 26.7102 158.26 28.5342 161.322 28.5342C162.995 28.5476 164.624 27.9998 165.946 26.9793L166.666 28.7264C166.276 29.0549 164.387 30.4735 161.262 30.4735C156.519 30.4735 153.699 27.0981 153.699 23.0657C153.699 18.911 156.459 15.6543 160.873 15.6543C164.686 15.6543 167.628 18.4043 167.628 22.9923C167.627 23.3274 167.596 23.6618 167.537 23.9917ZM165.676 22.0803C165.588 20.1095 164.177 17.5377 160.781 17.5377C157.386 17.5377 155.771 20.0466 155.68 22.0803H165.676Z" fill="#231F20"/>
<path d="M183 22.1991V30.208H181.079V21.7204C181.079 19.4212 180.177 17.5273 177.217 17.5273C174.998 17.5273 172.414 19.1416 172.414 21.8287V30.215H170.493V15.864H172.414V18.0759C173.165 16.8808 175.145 15.6299 177.157 15.6299C181.318 15.6264 183 17.9571 183 22.1991Z" fill="#231F20"/>
<path d="M63.4613 38.5804V37.6055C63.4613 35.6382 64.4901 34.6808 65.9192 34.6808C66.2897 34.661 66.6574 34.755 66.9725 34.9499V36.5293C66.735 36.3654 66.4502 36.2832 66.1614 36.2952C65.5048 36.2952 65.08 36.697 65.08 37.6544V38.5804H66.9725V40.1843H65.08V46.6487H63.4613V40.1843H62.3799V38.5699L63.4613 38.5804Z" fill="#231F20"/>
<path d="M76.4318 42.6302C76.427 43.4536 76.1772 44.2571 75.714 44.9394C75.2508 45.6217 74.5949 46.1523 73.829 46.464C73.0632 46.7758 72.2217 46.8549 71.4108 46.6913C70.5999 46.5277 69.8558 46.1287 69.2724 45.5448C68.6891 44.9608 68.2926 44.218 68.1329 43.41C67.9733 42.602 68.0576 41.7651 68.3754 41.0048C68.6931 40.2445 69.23 39.5949 69.9184 39.1379C70.6067 38.6809 71.4156 38.437 72.243 38.437C72.7951 38.437 73.3419 38.5456 73.8517 38.7567C74.3615 38.9677 74.8244 39.2769 75.2137 39.6666C75.603 40.0563 75.911 40.5188 76.1201 41.0274C76.3291 41.5359 76.4351 42.0807 76.4318 42.6302ZM74.8097 42.6302C74.809 42.1251 74.6579 41.6316 74.3754 41.212C74.0929 40.7924 73.6918 40.4656 73.2228 40.2728C72.7537 40.08 72.2378 40.0299 71.7401 40.1288C71.2424 40.2278 70.7854 40.4713 70.4268 40.8287C70.0682 41.1861 69.8241 41.6412 69.7254 42.1366C69.6266 42.632 69.6776 43.1454 69.872 43.6119C70.0664 44.0785 70.3954 44.4772 70.8174 44.7577C71.2394 45.0382 71.7355 45.188 72.243 45.188C72.9226 45.1825 73.5728 44.9111 74.053 44.4325C74.5333 43.9539 74.8051 43.3065 74.8097 42.6302Z" fill="#231F20"/>
<path d="M77.7798 43.2207V38.5803H79.402V43.0844C79.402 44.3773 79.8409 45.181 81.2278 45.181C81.8077 45.1813 82.365 44.9566 82.7812 44.5548C83.1975 44.1529 83.44 43.6054 83.4574 43.0285V38.5908H85.076V46.6486H83.4574V45.7052C83.1409 46.0597 82.7494 46.3401 82.3111 46.5262C81.8728 46.7123 81.3985 46.7994 80.9223 46.7814C79.0017 46.7814 77.7798 45.6073 77.7798 43.2207Z" fill="#231F20"/>
<path d="M94.6723 42.0081V46.6485H93.0467V42.1444C93.0467 40.848 92.6077 40.0478 91.2208 40.0478C90.6409 40.0476 90.0837 40.2722 89.6674 40.6741C89.2511 41.076 89.0086 41.6234 88.9912 42.2003V46.6381H87.3726V38.5803H88.9912V39.5202C89.3077 39.1657 89.6992 38.8853 90.1375 38.6992C90.5758 38.5131 91.0501 38.4259 91.5263 38.444C93.454 38.437 94.6723 39.6215 94.6723 42.0081Z" fill="#231F20"/>
<path d="M104.669 34.8135V46.6486H103.047V45.471C102.733 45.8867 102.325 46.2222 101.855 46.45C101.386 46.6779 100.869 46.7914 100.346 46.7814C97.9799 46.7814 96.291 44.9154 96.291 42.6127C96.291 40.31 97.9799 38.437 100.346 38.437C100.869 38.4269 101.387 38.5407 101.856 38.7692C102.326 38.9977 102.734 39.3342 103.047 39.7509V34.8135H104.669ZM103.047 42.6302C103.046 42.1251 102.895 41.6316 102.612 41.212C102.33 40.7924 101.929 40.4656 101.46 40.2728C100.991 40.08 100.475 40.0299 99.977 40.1289C99.4793 40.2278 99.0223 40.4714 98.6637 40.8287C98.3051 41.1861 98.061 41.6412 97.9623 42.1366C97.8635 42.632 97.9145 43.1454 98.1089 43.612C98.3033 44.0785 98.6323 44.4772 99.0543 44.7578C99.4763 45.0383 99.9724 45.188 100.48 45.188C100.817 45.188 101.151 45.1218 101.463 44.9932C101.775 44.8646 102.058 44.6762 102.296 44.4386C102.534 44.2011 102.723 43.9191 102.852 43.6088C102.981 43.2984 103.047 42.9659 103.047 42.6302Z" fill="#231F20"/>
<path d="M114.816 38.5804V46.6487H113.194V45.4711C112.88 45.8868 112.471 46.2224 112.001 46.4502C111.531 46.678 111.013 46.7915 110.49 46.7815C108.127 46.7815 106.438 44.9156 106.438 42.6128C106.438 40.3101 108.113 38.4372 110.476 38.4372C110.999 38.427 111.517 38.5408 111.988 38.7693C112.458 38.9977 112.866 39.3342 113.18 39.751V38.5734L114.816 38.5804ZM113.18 42.6303C113.179 42.1252 113.028 41.6317 112.746 41.2121C112.463 40.7925 112.062 40.4657 111.593 40.2729C111.124 40.0801 110.608 40.03 110.11 40.129C109.613 40.2279 109.156 40.4715 108.797 40.8288C108.439 41.1862 108.194 41.6414 108.096 42.1367C107.997 42.6321 108.048 43.1456 108.242 43.6121C108.437 44.0786 108.766 44.4773 109.188 44.7579C109.61 45.0384 110.106 45.1881 110.613 45.1881C110.951 45.1881 111.285 45.1219 111.596 44.9933C111.908 44.8648 112.191 44.6763 112.429 44.4387C112.668 44.2012 112.857 43.9192 112.986 43.6089C113.114 43.2986 113.18 42.966 113.18 42.6303Z" fill="#231F20"/>
<path d="M117.772 40.1841H116.691V38.5698H117.772V35.3411H119.38V38.5698H121.003V40.1841H119.38V43.5456C119.38 44.1152 119.38 44.7057 119.7 44.9434C120.09 45.2299 120.63 45.0936 121.003 44.9084V46.5402C120.625 46.7078 120.215 46.7878 119.802 46.7744C118.267 46.7744 117.758 45.5479 117.758 44.0034L117.772 40.1841Z" fill="#231F20"/>
<path d="M122.772 36.0261C122.772 35.786 122.843 35.551 122.976 35.3511C123.11 35.1512 123.3 34.9952 123.523 34.903C123.746 34.8108 123.991 34.7865 124.228 34.8332C124.464 34.8799 124.682 34.9954 124.852 35.1652C125.023 35.335 125.139 35.5513 125.186 35.7869C125.233 36.0224 125.208 36.2665 125.116 36.4882C125.023 36.7099 124.866 36.8992 124.666 37.0322C124.465 37.1652 124.229 37.2358 123.987 37.2351C123.828 37.2355 123.669 37.2046 123.522 37.144C123.374 37.0834 123.24 36.9944 123.127 36.882C123.014 36.7696 122.925 36.6362 122.864 36.4893C122.803 36.3424 122.772 36.185 122.772 36.0261ZM123.176 38.5804H124.798V46.6487H123.176V38.5804Z" fill="#231F20"/>
<path d="M134.798 42.6302C134.793 43.4539 134.543 44.2577 134.08 44.9402C133.616 45.6226 132.96 46.1531 132.194 46.4647C131.427 46.7762 130.586 46.8549 129.774 46.6907C128.963 46.5266 128.219 46.1269 127.636 45.5423C127.053 44.9576 126.657 44.2141 126.498 43.4057C126.339 42.5973 126.425 41.7601 126.744 41C127.062 40.2398 127.6 39.5907 128.29 39.1345C128.979 38.6784 129.788 38.4357 130.616 38.437C131.168 38.4379 131.714 38.5472 132.223 38.7587C132.732 38.9701 133.194 39.2795 133.582 39.6691C133.971 40.0587 134.278 40.5208 134.487 41.029C134.696 41.5371 134.801 42.0813 134.798 42.6302ZM133.176 42.6302C133.175 42.1251 133.024 41.6316 132.742 41.212C132.459 40.7924 132.058 40.4656 131.589 40.2728C131.12 40.08 130.604 40.0299 130.106 40.1288C129.609 40.2278 129.152 40.4713 128.793 40.8287C128.434 41.1861 128.19 41.6412 128.092 42.1366C127.993 42.632 128.044 43.1454 128.238 43.612C128.433 44.0785 128.762 44.4772 129.184 44.7577C129.606 45.0382 130.102 45.188 130.609 45.188C131.289 45.1825 131.939 44.9111 132.419 44.4325C132.9 43.9539 133.171 43.3065 133.176 42.6302Z" fill="#231F20"/>
<path d="M143.713 42.0081V46.6485H142.095V42.1444C142.095 40.848 141.652 40.0478 140.269 40.0478C139.689 40.0476 139.132 40.2722 138.715 40.6741C138.299 41.076 138.057 41.6234 138.039 42.2003V46.6381H136.417V38.5803H138.039V39.5202C138.356 39.1657 138.747 38.8853 139.185 38.6992C139.624 38.5131 140.098 38.4259 140.574 38.444C142.498 38.437 143.713 39.6215 143.713 42.0081Z" fill="#231F20"/>
<path d="M27.3663 -4.66821e-05C27.2638 -5.08591e-05 27.1624 0.0201528 27.0678 0.0593976C26.9731 0.0986424 26.8873 0.156151 26.8151 0.228601C26.743 0.301052 26.686 0.387009 26.6474 0.48151C26.6088 0.57601 26.5894 0.67718 26.5904 0.779178V2.9666C26.5908 3.0695 26.6119 3.17129 26.6524 3.26597C26.6929 3.36064 26.752 3.44631 26.8263 3.51793C26.9005 3.58954 26.9884 3.64567 27.0848 3.68301C27.1812 3.72034 27.284 3.73814 27.3874 3.73534C27.4898 3.73488 27.591 3.71436 27.6854 3.67496C27.7798 3.63555 27.8655 3.57802 27.9376 3.50567C28.0096 3.43331 28.0666 3.34753 28.1054 3.25324C28.1441 3.15895 28.1638 3.05799 28.1634 2.95612V0.768695C28.1625 0.665928 28.1411 0.564363 28.1004 0.469901C28.0597 0.37544 28.0006 0.289964 27.9264 0.218441C27.8522 0.146917 27.7645 0.0907703 27.6684 0.0532629C27.5723 0.0157554 27.4696 -0.0023653 27.3663 -4.66821e-05Z" fill="#03A1C6"/>
<path d="M22.4049 1.13215C22.3847 1.02546 22.3424 0.924151 22.2805 0.834706C22.2187 0.745261 22.1388 0.669657 22.0459 0.612743C21.953 0.555829 21.8492 0.518859 21.7411 0.504203C21.633 0.489548 21.5231 0.497531 21.4182 0.52764C21.2302 0.589547 21.0715 0.718092 20.9725 0.888827C20.8734 1.05956 20.8409 1.26057 20.881 1.45362L21.2673 3.55019C21.2987 3.73037 21.3931 3.8937 21.5338 4.01134C21.6745 4.12898 21.8525 4.19337 22.0362 4.19314C22.1122 4.19275 22.1878 4.18217 22.2609 4.16169C22.4469 4.09923 22.6037 3.97149 22.7019 3.80235C22.8001 3.63321 22.8331 3.43426 22.7946 3.2427L22.4049 1.13215Z" fill="#03A1C6"/>
<path d="M16.8187 2.48092C16.7801 2.38224 16.7216 2.29246 16.6469 2.21713C16.5721 2.14179 16.4826 2.0825 16.3839 2.04288C16.2852 2.00327 16.1794 1.98419 16.073 1.98681C15.9667 1.98943 15.862 2.0137 15.7654 2.05811C15.5905 2.15077 15.456 2.30412 15.3874 2.48903C15.3188 2.67393 15.3208 2.87748 15.3932 3.06097L16.1446 5.07018C16.1958 5.21832 16.291 5.34745 16.4177 5.44044C16.5444 5.53343 16.6965 5.58588 16.8538 5.59083C16.9754 5.59358 17.0958 5.56722 17.205 5.51396C17.3816 5.418 17.5157 5.2596 17.5807 5.07004C17.6457 4.88048 17.6369 4.67356 17.5561 4.49013L16.8187 2.48092Z" fill="#03A1C6"/>
<path d="M11.5516 4.77679C11.4968 4.68306 11.4229 4.60185 11.3345 4.53845C11.2462 4.47504 11.1454 4.43086 11.0388 4.40877C10.9321 4.38669 10.822 4.3872 10.7155 4.41027C10.6091 4.43334 10.5087 4.47845 10.421 4.54268C10.2668 4.66475 10.1628 4.83869 10.1285 5.03176C10.0943 5.22483 10.1321 5.42371 10.2349 5.59096L11.3234 7.43944C11.3918 7.55607 11.4897 7.65288 11.6074 7.7203C11.725 7.78771 11.8583 7.82339 11.994 7.82381C12.1315 7.82095 12.2658 7.78193 12.3833 7.71071C12.5007 7.63949 12.5972 7.5386 12.6628 7.4183C12.7284 7.29799 12.7609 7.16255 12.7569 7.02572C12.7529 6.8889 12.7126 6.75556 12.6401 6.63925L11.5516 4.77679Z" fill="#03A1C6"/>
<path d="M6.76603 7.94958C6.69544 7.86708 6.60827 7.80021 6.51013 7.75328C6.41199 7.70635 6.30506 7.68041 6.19623 7.67712C6.0874 7.67382 5.97908 7.69326 5.87826 7.73417C5.77743 7.77508 5.68634 7.83655 5.61085 7.91464C5.47907 8.06184 5.40625 8.25211 5.40625 8.44926C5.40625 8.64641 5.47907 8.83668 5.61085 8.98389L7.01533 10.6157C7.1462 10.7676 7.33076 10.8635 7.53077 10.8837C7.73079 10.9039 7.93093 10.8467 8.08975 10.724C8.17074 10.6536 8.23699 10.568 8.2847 10.4722C8.33242 10.3763 8.36068 10.2719 8.36785 10.1652C8.37503 10.0584 8.36098 9.95126 8.32652 9.8499C8.29205 9.74853 8.23785 9.65492 8.167 9.57442L6.76603 7.94958Z" fill="#03A1C6"/>
<path d="M33.1387 0.499624C32.939 0.493693 32.7442 0.561979 32.5923 0.691175C32.4404 0.820371 32.3423 1.00122 32.3171 1.19848L31.9519 3.25661C31.9161 3.44984 31.9523 3.64943 32.0538 3.81797C32.1553 3.98652 32.3151 4.11243 32.5032 4.17211C32.5717 4.19171 32.6426 4.20113 32.7139 4.20007C32.8968 4.20004 33.0738 4.1354 33.2133 4.01766C33.3529 3.89992 33.4459 3.73672 33.4758 3.55712L33.8269 1.40115C33.8453 1.29646 33.8418 1.18913 33.8166 1.08586C33.7914 0.982588 33.745 0.885606 33.6804 0.800983C33.6158 0.71636 33.5344 0.645917 33.4412 0.594062C33.348 0.542207 33.245 0.510057 33.1387 0.499624Z" fill="#03A1C6"/>
<path d="M38.8268 2.0022C38.6332 1.96045 38.4309 1.99164 38.259 2.08975C38.0871 2.18785 37.9579 2.3459 37.8964 2.53333L37.1941 4.51109C37.1237 4.6963 37.1241 4.90081 37.1953 5.08573C37.2665 5.27064 37.4036 5.42305 37.5804 5.51395C37.6781 5.55741 37.7838 5.58045 37.8909 5.58165C37.998 5.58284 38.1041 5.56217 38.2029 5.5209C38.3016 5.47964 38.3908 5.41866 38.4649 5.34173C38.539 5.26481 38.5964 5.17358 38.6337 5.07367L39.3711 3.01205C39.4082 2.9104 39.4234 2.80211 39.4156 2.69423C39.4078 2.58636 39.3772 2.48133 39.3258 2.38602C39.2745 2.29071 39.2035 2.20726 39.1175 2.14112C39.0315 2.07498 38.9325 2.02764 38.8268 2.0022Z" fill="#03A1C6"/>
<path d="M44.1602 4.46229C43.9784 4.38783 43.7754 4.38227 43.5897 4.44665C43.404 4.51104 43.2485 4.64092 43.1525 4.81171L42.0991 6.63223C41.9958 6.80533 41.9612 7.01061 42.0021 7.20779C42.043 7.40497 42.1565 7.57981 42.3203 7.69799C42.4464 7.78423 42.5957 7.83052 42.7487 7.83077C42.8862 7.83017 43.0211 7.79372 43.14 7.72505C43.2589 7.65638 43.3576 7.5579 43.4264 7.43941L44.5148 5.53503C44.5666 5.44231 44.5985 5.33993 44.6086 5.23433C44.6187 5.12873 44.6067 5.0222 44.5734 4.92144C44.5401 4.82068 44.4861 4.72787 44.415 4.64885C44.3439 4.56983 44.2572 4.50631 44.1602 4.46229Z" fill="#03A1C6"/>
<path d="M48.9883 7.80612C48.8206 7.70228 48.6204 7.66376 48.4259 7.69794C48.2315 7.73213 48.0566 7.83661 47.9349 7.99132L46.5936 9.60218C46.454 9.76571 46.3849 9.97749 46.4013 10.1915C46.4177 10.4054 46.5184 10.6043 46.6814 10.7448C46.8412 10.8671 47.0424 10.923 47.2427 10.9009C47.443 10.8787 47.6269 10.7802 47.7558 10.626L49.1603 8.94176C49.2295 8.85814 49.2802 8.76098 49.3092 8.65658C49.3382 8.55219 49.3448 8.44289 49.3286 8.33579C49.3123 8.22869 49.2737 8.12619 49.215 8.03493C49.1564 7.94368 49.0791 7.86572 48.9883 7.80612Z" fill="#03A1C6"/>
<path d="M53.5492 38.7867C53.2211 38.7511 52.8911 38.8343 52.6197 39.021C52.3482 39.2077 52.1534 39.4855 52.0709 39.8035C51.8251 40.7544 51.2111 41.5697 50.363 42.0713C49.5149 42.5728 48.5017 42.7198 47.545 42.4801C47.463 42.4617 47.3796 42.45 47.2957 42.4452C45.1553 42.0443 42.9698 41.9362 40.8 42.1237C38.4255 42.3126 36.1042 42.9232 33.9461 43.9268C31.9379 44.8694 30.1215 46.1724 28.5881 47.7705C28.4325 47.9343 28.245 48.0648 28.037 48.154C27.829 48.2431 27.6049 48.2891 27.3785 48.2891C27.152 48.2891 26.9279 48.2431 26.7199 48.154C26.5119 48.0648 26.3244 47.9343 26.1688 47.7705C24.6354 46.1724 22.819 44.8694 20.8108 43.9268C18.6525 42.9237 16.3313 42.313 13.9569 42.1237C11.7907 41.936 9.6089 42.043 7.47173 42.4417C7.37595 42.4459 7.28076 42.4588 7.18732 42.4801C6.23012 42.7209 5.21607 42.5744 4.36716 42.0727C3.51824 41.5711 2.90364 40.7551 2.65788 39.8035C2.57609 39.4852 2.38145 39.2069 2.10981 39.0201C1.83818 38.8332 1.50785 38.7503 1.17967 38.7867C0.990351 38.8106 0.808285 38.8742 0.645509 38.9733C0.482734 39.0725 0.342958 39.2048 0.235423 39.3617C0.127888 39.5186 0.0550441 39.6964 0.0217079 39.8834C-0.0116283 40.0704 -0.00469745 40.2623 0.0420422 40.4465C0.248684 41.2607 0.614565 42.0265 1.11877 42.7C1.62297 43.3734 2.2556 43.9414 2.98051 44.3714C3.70541 44.8014 4.50836 45.0849 5.34346 45.2059C6.17856 45.3269 7.02943 45.2829 7.84743 45.0764C7.90141 45.0631 7.95424 45.0456 8.00543 45.024C9.91821 44.677 11.8692 44.5876 13.8059 44.7584C18.4126 45.1742 21.8115 47.0052 24.81 50.6987V53.5361C24.8109 53.9238 24.9664 54.2953 25.2422 54.5691C25.518 54.8429 25.8916 54.9967 26.2812 54.9967H28.4406C28.784 55.0033 29.1199 54.8964 29.3956 54.6927C29.5737 54.5549 29.7179 54.3784 29.8171 54.1768C29.9163 53.9751 29.9679 53.7536 29.968 53.5291V50.6987C32.963 47.0052 36.3618 45.1742 40.9685 44.7584C42.8898 44.5886 44.8253 44.6756 46.7234 45.017L46.9025 45.0764C47.7212 45.2828 48.5727 45.3266 49.4084 45.2052C50.2441 45.0838 51.0476 44.7997 51.7728 44.369C52.4981 43.9383 53.1309 43.3696 53.6352 42.6954C54.1394 42.0211 54.5051 41.2545 54.7114 40.4395C54.7564 40.254 54.7613 40.0612 54.7257 39.8737C54.6901 39.6863 54.6148 39.5085 54.5049 39.3522C54.395 39.1959 54.2529 39.0646 54.0882 38.9671C53.9234 38.8696 53.7396 38.8081 53.5492 38.7867Z" fill="#FE4365"/>
<path d="M27.3664 5.75497C24.2268 5.74867 21.1539 6.65591 18.5256 8.36505C15.8974 10.0742 13.8286 12.5107 12.5737 15.3747H16.2675C17.3972 13.443 19.0172 11.8406 20.9651 10.7282C22.913 9.61571 25.1205 9.03219 27.3664 9.0361C29.6032 9.05098 31.7982 9.64035 33.739 10.7472C35.6797 11.854 37.3005 13.4407 38.4442 15.3538H38.4758H42.1591C40.9029 12.4923 38.8331 10.0589 36.2048 8.35341C33.5764 6.64788 30.5041 5.74466 27.3664 5.75497Z" fill="#FE4365"/>
<path d="M49.4202 13.4985C46.7473 12.8744 43.9909 12.6821 41.2567 12.929C38.6801 13.1285 36.1579 13.7717 33.8024 14.8299C31.8659 15.7108 30.0869 16.9006 28.5356 18.3521C28.2313 18.6351 27.8303 18.7925 27.4138 18.7925C26.9973 18.7925 26.5963 18.6351 26.2919 18.3521C24.7406 16.8989 22.9617 15.7068 21.0252 14.8229C18.6535 13.7662 16.1162 13.1255 13.5252 12.929C10.7755 12.6844 8.00407 12.879 5.31607 13.5055C5.02529 13.594 4.77121 13.774 4.59203 14.0185C4.41285 14.263 4.31823 14.5587 4.3224 14.8613V38.5421C4.32059 38.7491 4.36391 38.9541 4.44938 39.143C4.53484 39.3318 4.66043 39.4999 4.81748 39.6358C4.97509 39.7703 5.16351 39.8643 5.36616 39.9093C5.56882 39.9544 5.7795 39.9493 5.97968 39.8943C8.27964 39.3624 10.6481 39.1856 13.0021 39.3702C18.325 39.7581 22.8545 41.8162 26.4675 45.4503C26.5859 45.5724 26.7277 45.6696 26.8845 45.7363C27.0413 45.8029 27.2099 45.8375 27.3804 45.8381H27.4471C27.4705 45.8398 27.494 45.8398 27.5174 45.8381C27.6873 45.837 27.8552 45.8022 28.0114 45.7356C28.1676 45.669 28.3088 45.572 28.4268 45.4503C32.0152 41.8022 36.5025 39.7581 41.8079 39.3702C44.1409 39.1865 46.4884 39.3633 48.7671 39.8943C48.9673 39.9496 49.178 39.9549 49.3807 39.9098C49.5834 39.8647 49.7719 39.7706 49.9293 39.6358C50.0862 39.4998 50.2116 39.3316 50.2971 39.1428C50.3825 38.954 50.426 38.7491 50.4244 38.5421V14.8543C50.4279 14.5504 50.3317 14.2536 50.1505 14.009C49.9693 13.7643 49.7129 13.5851 49.4202 13.4985ZM26.0427 41.4318C22.3157 38.5615 17.8105 36.8674 13.1074 36.5678C12.4789 36.5224 11.8399 36.5014 11.2079 36.5014C9.78574 36.5051 8.36621 36.622 6.96282 36.8508V16.0004C9.07778 15.6327 11.2318 15.5399 13.3707 15.7244C18.6375 16.1821 22.9107 18.2927 26.0427 22.0141V41.4318ZM47.777 36.8368C45.7602 36.5112 43.7122 36.421 41.6745 36.5678C36.997 36.869 32.5184 38.5625 28.82 41.4283V21.9896C31.952 18.2822 36.1654 16.1717 41.4322 15.7244C43.5565 15.5434 45.6954 15.6397 47.7945 16.0109L47.777 36.8368Z" fill="#03A1C6"/>
</svg>
