<svg width="32" height="32" viewBox="0 0 32 32" fill="none" xmlns="http://www.w3.org/2000/svg">
<path d="M18.6667 10.6668V8.00016C18.6667 7.29292 18.3857 6.61464 17.8856 6.11454C17.3855 5.61445 16.7072 5.3335 16 5.3335H6.66667C5.95942 5.3335 5.28115 5.61445 4.78105 6.11454C4.28095 6.61464 4 7.29292 4 8.00016V24.0002C4 24.7074 4.28095 25.3857 4.78105 25.8858C5.28115 26.3859 5.95942 26.6668 6.66667 26.6668H16C16.7072 26.6668 17.3855 26.3859 17.8856 25.8858C18.3857 25.3857 18.6667 24.7074 18.6667 24.0002V21.3335" stroke="" stroke-width="2" stroke-linecap="round" stroke-linejoin="round"/>
<path d="M9.3335 16H28.0002M28.0002 16L24.0002 12M28.0002 16L24.0002 20" stroke="" stroke-width="2" stroke-linecap="round" stroke-linejoin="round"/>
</svg>
