<svg width="50" height="50" viewBox="0 0 50 50" fill="none" xmlns="http://www.w3.org/2000/svg">
    <circle cx="25" cy="25" r="25" fill="#FEFEFE"/>
    <path d="M25 22.5C25 20.5109 24.2098 18.6032 22.8033 17.1967C21.3968 15.7902 19.4891 15 17.5 15H13.75V17.5C13.75 19.4891 14.5402 21.3968 15.9467 22.8033C17.3532 24.2098 19.2609 25 21.25 25H25" stroke="#03A1C6" stroke-width="2" stroke-linecap="round" stroke-linejoin="round"/>
    <path d="M25 27.5C25 25.5109 25.7902 23.6032 27.1967 22.1967C28.6032 20.7902 30.5109 20 32.5 20H36.25V21.25C36.25 23.2391 35.4598 25.1468 34.0533 26.5533C32.6468 27.9598 30.7391 28.75 28.75 28.75H25" stroke="#03A1C6" stroke-width="2" stroke-linecap="round" stroke-linejoin="round"/>
    <path d="M25 35V22.5" stroke="#03A1C6" stroke-width="2" stroke-linecap="round" stroke-linejoin="round"/>
    </svg>
    